<svg xmlns="http://www.w3.org/2000/svg" viewBox="0 0 612 228" width="612" height="228" font-family="ui-monospace,SFMono-Regular,Menlo,Consolas,'DejaVu Sans Mono','Liberation Mono',monospace" font-size="14" role="img" aria-label="Tade"><rect width="612" height="228" rx="8" fill="#111111"/><rect x="6" y="0" width="600" height="222" rx="5" fill="#1c1c1c"/><rect x="230.4" y="125" width="8.4" height="17" fill="rgb(238,238,238)"/><rect x="54" y="176" width="117.6" height="17" fill="rgb(135,0,215)"/><rect x="180" y="176" width="67.2" height="17" fill="rgb(68,68,68)"/><line x1="16.2" y1="6" x2="16.2" y2="210" stroke="rgb(88,88,88)" stroke-width="1.1"/><path d="M41.4 159Q41.4 150.5 45.6 150.5" fill="none" stroke="rgb(88,88,88)" stroke-width="1.1"/><line x1="45.6" y1="150.5" x2="54" y2="150.5" stroke="rgb(88,88,88)" stroke-width="1.1"/><line x1="188.4" y1="150.5" x2="566.4" y2="150.5" stroke="rgb(88,88,88)" stroke-width="1.1"/><path d="M570.6 159Q570.6 150.5 566.4 150.5" fill="none" stroke="rgb(88,88,88)" stroke-width="1.1"/><line x1="41.4" y1="159" x2="41.4" y2="193" stroke="rgb(88,88,88)" stroke-width="1.1"/><line x1="570.6" y1="159" x2="570.6" y2="193" stroke="rgb(88,88,88)" stroke-width="1.1"/><path d="M41.4 193Q41.4 201.5 45.6 201.5" fill="none" stroke="rgb(88,88,88)" stroke-width="1.1"/><line x1="45.6" y1="201.5" x2="566.4" y2="201.5" stroke="rgb(88,88,88)" stroke-width="1.1"/><path d="M570.6 193Q570.6 201.5 566.4 201.5" fill="none" stroke="rgb(88,88,88)" stroke-width="1.1"/><text x="37.2" y="53.2" textLength="8.4" lengthAdjust="spacingAndGlyphs">●</text><text x="54" y="53.2" textLength="75.6" lengthAdjust="spacingAndGlyphs">Upgrading</text><text x="138" y="53.2" textLength="50.4" lengthAdjust="spacingAndGlyphs">stripe</text><text x="196.8" y="53.2" textLength="16.8" lengthAdjust="spacingAndGlyphs">to</text><text x="222" y="53.2" textLength="33.6" lengthAdjust="spacingAndGlyphs">v15.</text><text x="264" y="53.2" textLength="25.2" lengthAdjust="spacingAndGlyphs">The</text><text x="297.6" y="53.2" textLength="58.8" lengthAdjust="spacingAndGlyphs">webhook</text><text x="364.8" y="53.2" textLength="75.6" lengthAdjust="spacingAndGlyphs">signature</text><text x="448.8" y="53.2" textLength="25.2" lengthAdjust="spacingAndGlyphs">API</text><text x="482.4" y="53.2" textLength="67.2" lengthAdjust="spacingAndGlyphs">changed,</text><text x="54" y="70.2" textLength="16.8" lengthAdjust="spacingAndGlyphs">so</text><text x="79.2" y="70.2" textLength="126" lengthAdjust="spacingAndGlyphs">src/webhooks.ts</text><text x="213.6" y="70.2" textLength="42" lengthAdjust="spacingAndGlyphs">needs</text><text x="264" y="70.2" textLength="25.2" lengthAdjust="spacingAndGlyphs">the</text><text x="297.6" y="70.2" textLength="25.2" lengthAdjust="spacingAndGlyphs">new</text><text x="331.2" y="70.2" textLength="117.6" lengthAdjust="spacingAndGlyphs">constructEvent</text><text x="457.2" y="70.2" textLength="84" lengthAdjust="spacingAndGlyphs">signature.</text><text x="37.2" y="104.2" textLength="8.4" lengthAdjust="spacingAndGlyphs">▸</text><text x="54" y="104.2" textLength="33.6" lengthAdjust="spacingAndGlyphs">Read</text><text x="96" y="104.2" textLength="126" lengthAdjust="spacingAndGlyphs">src/webhooks.ts</text><text x="37.2" y="121.2" textLength="8.4" lengthAdjust="spacingAndGlyphs">▸</text><text x="54" y="121.2" textLength="33.6" lengthAdjust="spacingAndGlyphs">Edit</text><text x="96" y="121.2" textLength="126" lengthAdjust="spacingAndGlyphs">src/webhooks.ts</text><text x="238.8" y="121.2" textLength="25.2" lengthAdjust="spacingAndGlyphs">+12</text><text x="272.4" y="121.2" textLength="16.8" lengthAdjust="spacingAndGlyphs">−4</text><text x="37.2" y="138.2" textLength="8.4" lengthAdjust="spacingAndGlyphs">▸</text><text x="54" y="138.2" textLength="33.6" lengthAdjust="spacingAndGlyphs">bash</text><text x="96" y="138.2" textLength="25.2" lengthAdjust="spacingAndGlyphs">npm</text><text x="129.6" y="138.2" textLength="8.4" lengthAdjust="spacingAndGlyphs">i</text><text x="146.4" y="138.2" textLength="75.6" lengthAdjust="spacingAndGlyphs">stripe@15</text><text x="62.4" y="155.2" textLength="42" lengthAdjust="spacingAndGlyphs" fill="rgb(215,135,255)">wants</text><text x="112.8" y="155.2" textLength="67.2" lengthAdjust="spacingAndGlyphs" fill="rgb(215,135,255)">approval</text><text x="54" y="172.2" textLength="33.6" lengthAdjust="spacingAndGlyphs" fill="rgb(238,238,238)" font-weight="700">bash</text><text x="104.4" y="172.2" textLength="25.2" lengthAdjust="spacingAndGlyphs">npm</text><text x="138" y="172.2" textLength="8.4" lengthAdjust="spacingAndGlyphs">i</text><text x="154.8" y="172.2" textLength="75.6" lengthAdjust="spacingAndGlyphs">stripe@15</text><text x="70.8" y="189.2" textLength="42" lengthAdjust="spacingAndGlyphs" fill="rgb(238,238,238)" font-weight="700">Allow</text><text x="121.2" y="189.2" textLength="33.6" lengthAdjust="spacingAndGlyphs" fill="rgb(238,238,238)" font-weight="700">once</text><text x="196.8" y="189.2" textLength="33.6" lengthAdjust="spacingAndGlyphs" fill="rgb(238,238,238)">Deny</text></svg>
