<svg xmlns="http://www.w3.org/2000/svg" viewBox="0 0 981.6 500" width="981.6" height="500" font-family="ui-monospace,SFMono-Regular,Menlo,Consolas,'DejaVu Sans Mono','Liberation Mono',monospace" font-size="14" role="img" aria-label="Tade"><rect width="981.6" height="500" rx="8" fill="#111111"/><rect x="6" y="0" width="969.6" height="494" rx="5" fill="#1c1c1c"/><rect x="12" y="6" width="957.6" height="17" fill="#262626"/><rect x="12" y="23" width="957.6" height="17" fill="#262626"/><rect x="12" y="40" width="957.6" height="17" fill="#262626"/><rect x="12" y="57" width="940.8" height="17" fill="#262626"/><rect x="952.8" y="57" width="8.4" height="17" fill="#303030"/><rect x="961.2" y="57" width="8.4" height="17" fill="#262626"/><rect x="12" y="74" width="940.8" height="17" fill="#262626"/><rect x="952.8" y="74" width="8.4" height="17" fill="#303030"/><rect x="961.2" y="74" width="8.4" height="17" fill="#262626"/><rect x="12" y="91" width="940.8" height="17" fill="#262626"/><rect x="952.8" y="91" width="8.4" height="17" fill="#303030"/><rect x="961.2" y="91" width="8.4" height="17" fill="#262626"/><rect x="12" y="108" width="940.8" height="17" fill="#262626"/><rect x="952.8" y="108" width="8.4" height="17" fill="#303030"/><rect x="961.2" y="108" width="8.4" height="17" fill="#262626"/><rect x="12" y="125" width="940.8" height="17" fill="#262626"/><rect x="952.8" y="125" width="8.4" height="17" fill="#303030"/><rect x="961.2" y="125" width="8.4" height="17" fill="#262626"/><rect x="12" y="142" width="487.2" height="17" fill="#262626"/><rect x="499.2" y="142" width="8.4" height="17" fill="#eeeeee"/><rect x="507.6" y="142" width="445.2" height="17" fill="#262626"/><rect x="952.8" y="142" width="8.4" height="17" fill="#303030"/><rect x="961.2" y="142" width="8.4" height="17" fill="#262626"/><rect x="12" y="159" width="940.8" height="17" fill="#262626"/><rect x="952.8" y="159" width="8.4" height="17" fill="#303030"/><rect x="961.2" y="159" width="8.4" height="17" fill="#262626"/><rect x="12" y="176" width="940.8" height="17" fill="#262626"/><rect x="952.8" y="176" width="8.4" height="17" fill="#303030"/><rect x="961.2" y="176" width="8.4" height="17" fill="#262626"/><rect x="12" y="193" width="940.8" height="17" fill="#262626"/><rect x="952.8" y="193" width="8.4" height="17" fill="#303030"/><rect x="961.2" y="193" width="8.4" height="17" fill="#262626"/><rect x="12" y="210" width="940.8" height="17" fill="#262626"/><rect x="952.8" y="210" width="8.4" height="17" fill="#303030"/><rect x="961.2" y="210" width="8.4" height="17" fill="#262626"/><rect x="12" y="227" width="940.8" height="17" fill="#262626"/><rect x="952.8" y="227" width="8.4" height="17" fill="#303030"/><rect x="961.2" y="227" width="8.4" height="17" fill="#262626"/><rect x="12" y="244" width="940.8" height="17" fill="#262626"/><rect x="952.8" y="244" width="8.4" height="17" fill="#303030"/><rect x="961.2" y="244" width="8.4" height="17" fill="#262626"/><rect x="12" y="261" width="940.8" height="17" fill="#262626"/><rect x="952.8" y="261" width="8.4" height="17" fill="#303030"/><rect x="961.2" y="261" width="8.4" height="17" fill="#262626"/><rect x="12" y="278" width="940.8" height="17" fill="#262626"/><rect x="952.8" y="278" width="8.4" height="17" fill="#303030"/><rect x="961.2" y="278" width="8.4" height="17" fill="#262626"/><rect x="12" y="295" width="940.8" height="17" fill="#262626"/><rect x="952.8" y="295" width="8.4" height="17" fill="#303030"/><rect x="961.2" y="295" width="8.4" height="17" fill="#262626"/><rect x="12" y="312" width="940.8" height="17" fill="#262626"/><rect x="952.8" y="312" width="8.4" height="17" fill="#303030"/><rect x="961.2" y="312" width="8.4" height="17" fill="#262626"/><rect x="12" y="329" width="940.8" height="17" fill="#262626"/><rect x="952.8" y="329" width="8.4" height="17" fill="#303030"/><rect x="961.2" y="329" width="8.4" height="17" fill="#262626"/><rect x="12" y="346" width="940.8" height="17" fill="#262626"/><rect x="952.8" y="346" width="8.4" height="17" fill="#303030"/><rect x="961.2" y="346" width="8.4" height="17" fill="#262626"/><rect x="12" y="363" width="940.8" height="17" fill="#262626"/><rect x="952.8" y="363" width="8.4" height="17" fill="#303030"/><rect x="961.2" y="363" width="8.4" height="17" fill="#262626"/><rect x="12" y="380" width="940.8" height="17" fill="#262626"/><rect x="952.8" y="380" width="8.4" height="17" fill="#303030"/><rect x="961.2" y="380" width="8.4" height="17" fill="#262626"/><rect x="12" y="397" width="940.8" height="17" fill="#262626"/><rect x="952.8" y="397" width="8.4" height="17" fill="#303030"/><rect x="961.2" y="397" width="8.4" height="17" fill="#262626"/><rect x="12" y="414" width="940.8" height="17" fill="#262626"/><rect x="952.8" y="414" width="8.4" height="17" fill="#303030"/><rect x="961.2" y="414" width="8.4" height="17" fill="#262626"/><rect x="12" y="431" width="957.6" height="17" fill="#262626"/><rect x="12" y="448" width="512.4" height="17" fill="#262626"/><rect x="524.4" y="448" width="67.2" height="17" fill="#5f875f"/><rect x="591.6" y="448" width="8.4" height="17" fill="#262626"/><rect x="600" y="448" width="109.2" height="17" fill="#444444"/><rect x="709.2" y="448" width="8.4" height="17" fill="#262626"/><rect x="717.6" y="448" width="151.2" height="17" fill="#ffaf00"/><rect x="868.8" y="448" width="8.4" height="17" fill="#262626"/><rect x="877.2" y="448" width="75.6" height="17" fill="#444444"/><rect x="952.8" y="448" width="16.8" height="17" fill="#262626"/><rect x="12" y="465" width="957.6" height="17" fill="#262626"/><rect x="960.15" y="57" width="1.05" height="374" fill="#303030"/><path d="M16.5 23Q16.5 14.5 20.4 14.5" fill="none" stroke="#8a8a8a" stroke-width="1.1"/><line x1="20.4" y1="14.5" x2="28.8" y2="14.5" stroke="#8a8a8a" stroke-width="1.1"/><line x1="79.2" y1="14.5" x2="910.8" y2="14.5" stroke="#8a8a8a" stroke-width="1.1"/><line x1="952.8" y1="14.5" x2="961.2" y2="14.5" stroke="#8a8a8a" stroke-width="1.1"/><path d="M965.5 23Q965.5 14.5 961.2 14.5" fill="none" stroke="#8a8a8a" stroke-width="1.1"/><line x1="16.5" y1="23" x2="16.5" y2="465" stroke="#8a8a8a" stroke-width="1.1"/><line x1="965.5" y1="23" x2="965.5" y2="465" stroke="#8a8a8a" stroke-width="1.1"/><line x1="20.4" y1="48.5" x2="961.2" y2="48.5" stroke="#585858" stroke-width="1.1"/><line x1="66.5" y1="57" x2="66.5" y2="312" stroke="#585858" stroke-width="1.1"/><line x1="20.4" y1="439.5" x2="961.2" y2="439.5" stroke="#585858" stroke-width="1.1"/><path d="M16.5 465Q16.5 473.5 20.4 473.5" fill="none" stroke="#8a8a8a" stroke-width="1.1"/><line x1="20.4" y1="473.5" x2="961.2" y2="473.5" stroke="#8a8a8a" stroke-width="1.1"/><path d="M965.5 465Q965.5 473.5 961.2 473.5" fill="none" stroke="#8a8a8a" stroke-width="1.1"/><text x="37.2" y="19.2" textLength="33.6" lengthAdjust="spacingAndGlyphs" fill="#eeeeee" font-weight="700">File</text><text x="919.2" y="19.2" textLength="25.2" lengthAdjust="spacingAndGlyphs" fill="#808080">esc</text><text x="28.8" y="36.2" textLength="252" lengthAdjust="spacingAndGlyphs" fill="#eeeeee" font-weight="700">~/src/checkout/src/webhooks.ts</text><text x="297.6" y="36.2" textLength="84" lengthAdjust="spacingAndGlyphs" fill="#808080">typescript</text><text x="390" y="36.2" textLength="8.4" lengthAdjust="spacingAndGlyphs" fill="#808080">·</text><text x="406.8" y="36.2" textLength="16.8" lengthAdjust="spacingAndGlyphs" fill="#808080">15</text><text x="432" y="36.2" textLength="42" lengthAdjust="spacingAndGlyphs" fill="#808080">lines</text><text x="482.4" y="36.2" textLength="8.4" lengthAdjust="spacingAndGlyphs" fill="#808080">·</text><text x="499.2" y="36.2" textLength="8.4" lengthAdjust="spacingAndGlyphs" fill="#808080">1</text><text x="516" y="36.2" textLength="16.8" lengthAdjust="spacingAndGlyphs" fill="#808080">KB</text><text x="549.6" y="36.2" textLength="8.4" lengthAdjust="spacingAndGlyphs" fill="#d787d7">●</text><text x="566.4" y="36.2" textLength="25.2" lengthAdjust="spacingAndGlyphs" fill="#d787d7">not</text><text x="600" y="36.2" textLength="42" lengthAdjust="spacingAndGlyphs" fill="#d787d7">saved</text><text x="45.6" y="70.2" textLength="8.4" lengthAdjust="spacingAndGlyphs" fill="#808080">1</text><text x="79.2" y="70.2" textLength="50.4" lengthAdjust="spacingAndGlyphs" fill="#d787d7">import</text><text x="138" y="70.2" textLength="50.4" lengthAdjust="spacingAndGlyphs" fill="#d0d0d0">Stripe</text><text x="196.8" y="70.2" textLength="33.6" lengthAdjust="spacingAndGlyphs" fill="#d787d7">from</text><text x="238.8" y="70.2" textLength="67.2" lengthAdjust="spacingAndGlyphs" fill="#87d787">'stripe'</text><text x="45.6" y="87.2" textLength="8.4" lengthAdjust="spacingAndGlyphs" fill="#808080">2</text><text x="79.2" y="87.2" textLength="50.4" lengthAdjust="spacingAndGlyphs" fill="#d787d7">import</text><text x="138" y="87.2" textLength="8.4" lengthAdjust="spacingAndGlyphs" fill="#d0d0d0">{</text><text x="154.8" y="87.2" textLength="50.4" lengthAdjust="spacingAndGlyphs" fill="#d0d0d0">refund</text><text x="213.6" y="87.2" textLength="8.4" lengthAdjust="spacingAndGlyphs" fill="#d0d0d0">}</text><text x="230.4" y="87.2" textLength="33.6" lengthAdjust="spacingAndGlyphs" fill="#d787d7">from</text><text x="272.4" y="87.2" textLength="109.2" lengthAdjust="spacingAndGlyphs" fill="#87d787">'./ledger.ts'</text><text x="45.6" y="104.2" textLength="8.4" lengthAdjust="spacingAndGlyphs" fill="#808080">3</text><text x="45.6" y="121.2" textLength="8.4" lengthAdjust="spacingAndGlyphs" fill="#808080">4</text><text x="79.2" y="121.2" textLength="25.2" lengthAdjust="spacingAndGlyphs" fill="#767676" font-style="italic">/**</text><text x="112.8" y="121.2" textLength="42" lengthAdjust="spacingAndGlyphs" fill="#767676" font-style="italic">Every</text><text x="163.2" y="121.2" textLength="42" lengthAdjust="spacingAndGlyphs" fill="#767676" font-style="italic">event</text><text x="213.6" y="121.2" textLength="50.4" lengthAdjust="spacingAndGlyphs" fill="#767676" font-style="italic">Stripe</text><text x="272.4" y="121.2" textLength="42" lengthAdjust="spacingAndGlyphs" fill="#767676" font-style="italic">sends</text><text x="322.8" y="121.2" textLength="25.2" lengthAdjust="spacingAndGlyphs" fill="#767676" font-style="italic">us,</text><text x="356.4" y="121.2" textLength="58.8" lengthAdjust="spacingAndGlyphs" fill="#767676" font-style="italic">checked</text><text x="423.6" y="121.2" textLength="50.4" lengthAdjust="spacingAndGlyphs" fill="#767676" font-style="italic">before</text><text x="482.4" y="121.2" textLength="67.2" lengthAdjust="spacingAndGlyphs" fill="#767676" font-style="italic">anything</text><text x="558" y="121.2" textLength="33.6" lengthAdjust="spacingAndGlyphs" fill="#767676" font-style="italic">acts</text><text x="600" y="121.2" textLength="16.8" lengthAdjust="spacingAndGlyphs" fill="#767676" font-style="italic">on</text><text x="625.2" y="121.2" textLength="25.2" lengthAdjust="spacingAndGlyphs" fill="#767676" font-style="italic">it.</text><text x="658.8" y="121.2" textLength="16.8" lengthAdjust="spacingAndGlyphs" fill="#767676" font-style="italic">*/</text><text x="45.6" y="138.2" textLength="8.4" lengthAdjust="spacingAndGlyphs" fill="#808080">5</text><text x="79.2" y="138.2" textLength="50.4" lengthAdjust="spacingAndGlyphs" fill="#d787d7">export</text><text x="138" y="138.2" textLength="42" lengthAdjust="spacingAndGlyphs" fill="#d787d7">async</text><text x="188.4" y="138.2" textLength="67.2" lengthAdjust="spacingAndGlyphs" fill="#d787d7">function</text><text x="264" y="138.2" textLength="50.4" lengthAdjust="spacingAndGlyphs" fill="#5fd7d7">handle</text><text x="314.4" y="138.2" textLength="50.4" lengthAdjust="spacingAndGlyphs" fill="#d0d0d0">(body:</text><text x="373.2" y="138.2" textLength="50.4" lengthAdjust="spacingAndGlyphs" fill="#d7875f">string</text><text x="423.6" y="138.2" textLength="8.4" lengthAdjust="spacingAndGlyphs" fill="#d0d0d0">,</text><text x="440.4" y="138.2" textLength="33.6" lengthAdjust="spacingAndGlyphs" fill="#d0d0d0">sig:</text><text x="482.4" y="138.2" textLength="50.4" lengthAdjust="spacingAndGlyphs" fill="#d7875f">string</text><text x="532.8" y="138.2" textLength="16.8" lengthAdjust="spacingAndGlyphs" fill="#d0d0d0">):</text><text x="558" y="138.2" textLength="58.8" lengthAdjust="spacingAndGlyphs" fill="#5fd7d7">Promise</text><text x="616.8" y="138.2" textLength="8.4" lengthAdjust="spacingAndGlyphs" fill="#d0d0d0">&lt;</text><text x="625.2" y="138.2" textLength="33.6" lengthAdjust="spacingAndGlyphs" fill="#5fd7d7">void</text><text x="658.8" y="138.2" textLength="8.4" lengthAdjust="spacingAndGlyphs" fill="#d0d0d0">&gt;</text><text x="675.6" y="138.2" textLength="8.4" lengthAdjust="spacingAndGlyphs" fill="#d0d0d0">{</text><text x="45.6" y="155.2" textLength="8.4" lengthAdjust="spacingAndGlyphs" fill="#808080">6</text><text x="96" y="155.2" textLength="42" lengthAdjust="spacingAndGlyphs" fill="#d787d7">const</text><text x="146.4" y="155.2" textLength="25.2" lengthAdjust="spacingAndGlyphs" fill="#d0d0d0">key</text><text x="180" y="155.2" textLength="8.4" lengthAdjust="spacingAndGlyphs" fill="#d0d0d0">=</text><text x="196.8" y="155.2" textLength="302.4" lengthAdjust="spacingAndGlyphs" fill="#d0d0d0">process.env.STRIPE_WEBHOOK_SECRET_V2</text><text x="45.6" y="172.2" textLength="8.4" lengthAdjust="spacingAndGlyphs" fill="#808080">7</text><text x="96" y="172.2" textLength="16.8" lengthAdjust="spacingAndGlyphs" fill="#d787d7">if</text><text x="121.2" y="172.2" textLength="50.4" lengthAdjust="spacingAndGlyphs" fill="#d0d0d0">(!key)</text><text x="180" y="172.2" textLength="42" lengthAdjust="spacingAndGlyphs" fill="#d787d7">throw</text><text x="230.4" y="172.2" textLength="25.2" lengthAdjust="spacingAndGlyphs" fill="#d787d7">new</text><text x="264" y="172.2" textLength="42" lengthAdjust="spacingAndGlyphs" fill="#d7875f">Error</text><text x="306" y="172.2" textLength="8.4" lengthAdjust="spacingAndGlyphs" fill="#d0d0d0">(</text><text x="314.4" y="172.2" textLength="25.2" lengthAdjust="spacingAndGlyphs" fill="#87d787">'no</text><text x="348" y="172.2" textLength="58.8" lengthAdjust="spacingAndGlyphs" fill="#87d787">webhook</text><text x="415.2" y="172.2" textLength="58.8" lengthAdjust="spacingAndGlyphs" fill="#87d787">secret'</text><text x="474" y="172.2" textLength="8.4" lengthAdjust="spacingAndGlyphs" fill="#d0d0d0">)</text><text x="45.6" y="189.2" textLength="8.4" lengthAdjust="spacingAndGlyphs" fill="#808080">8</text><text x="96" y="189.2" textLength="42" lengthAdjust="spacingAndGlyphs" fill="#d787d7">const</text><text x="146.4" y="189.2" textLength="117.6" lengthAdjust="spacingAndGlyphs" fill="#d0d0d0">cryptoProvider</text><text x="272.4" y="189.2" textLength="8.4" lengthAdjust="spacingAndGlyphs" fill="#d0d0d0">=</text><text x="289.2" y="189.2" textLength="294" lengthAdjust="spacingAndGlyphs" fill="#d0d0d0">Stripe.createSubtleCryptoProvider()</text><text x="45.6" y="206.2" textLength="8.4" lengthAdjust="spacingAndGlyphs" fill="#808080">9</text><text x="96" y="206.2" textLength="42" lengthAdjust="spacingAndGlyphs" fill="#d787d7">const</text><text x="146.4" y="206.2" textLength="42" lengthAdjust="spacingAndGlyphs" fill="#d0d0d0">event</text><text x="196.8" y="206.2" textLength="8.4" lengthAdjust="spacingAndGlyphs" fill="#d0d0d0">=</text><text x="213.6" y="206.2" textLength="42" lengthAdjust="spacingAndGlyphs" fill="#d787d7">await</text><text x="264" y="206.2" textLength="302.4" lengthAdjust="spacingAndGlyphs" fill="#d0d0d0">stripe.webhooks.constructEventAsync(</text><text x="37.2" y="223.2" textLength="16.8" lengthAdjust="spacingAndGlyphs" fill="#808080">10</text><text x="112.8" y="223.2" textLength="42" lengthAdjust="spacingAndGlyphs" fill="#d0d0d0">body,</text><text x="163.2" y="223.2" textLength="33.6" lengthAdjust="spacingAndGlyphs" fill="#d0d0d0">sig,</text><text x="205.2" y="223.2" textLength="33.6" lengthAdjust="spacingAndGlyphs" fill="#d0d0d0">key,</text><text x="247.2" y="223.2" textLength="75.6" lengthAdjust="spacingAndGlyphs" fill="#d7875f">undefined</text><text x="322.8" y="223.2" textLength="8.4" lengthAdjust="spacingAndGlyphs" fill="#d0d0d0">,</text><text x="339.6" y="223.2" textLength="126" lengthAdjust="spacingAndGlyphs" fill="#d0d0d0">cryptoProvider,</text><text x="37.2" y="240.2" textLength="16.8" lengthAdjust="spacingAndGlyphs" fill="#808080">11</text><text x="96" y="240.2" textLength="8.4" lengthAdjust="spacingAndGlyphs" fill="#d0d0d0">)</text><text x="37.2" y="257.2" textLength="16.8" lengthAdjust="spacingAndGlyphs" fill="#808080">12</text><text x="96" y="257.2" textLength="16.8" lengthAdjust="spacingAndGlyphs" fill="#d787d7">if</text><text x="121.2" y="257.2" textLength="92.4" lengthAdjust="spacingAndGlyphs" fill="#d0d0d0">(event.type</text><text x="222" y="257.2" textLength="25.2" lengthAdjust="spacingAndGlyphs" fill="#d0d0d0">===</text><text x="255.6" y="257.2" textLength="142.8" lengthAdjust="spacingAndGlyphs" fill="#87d787">'charge.refunded'</text><text x="398.4" y="257.2" textLength="8.4" lengthAdjust="spacingAndGlyphs" fill="#d0d0d0">)</text><text x="415.2" y="257.2" textLength="8.4" lengthAdjust="spacingAndGlyphs" fill="#d0d0d0">{</text><text x="37.2" y="274.2" textLength="16.8" lengthAdjust="spacingAndGlyphs" fill="#808080">13</text><text x="112.8" y="274.2" textLength="42" lengthAdjust="spacingAndGlyphs" fill="#d787d7">await</text><text x="163.2" y="274.2" textLength="109.2" lengthAdjust="spacingAndGlyphs" fill="#d0d0d0">refund(event)</text><text x="37.2" y="291.2" textLength="16.8" lengthAdjust="spacingAndGlyphs" fill="#808080">14</text><text x="96" y="291.2" textLength="8.4" lengthAdjust="spacingAndGlyphs" fill="#d0d0d0">}</text><text x="37.2" y="308.2" textLength="16.8" lengthAdjust="spacingAndGlyphs" fill="#808080">15</text><text x="79.2" y="308.2" textLength="8.4" lengthAdjust="spacingAndGlyphs" fill="#d0d0d0">}</text><text x="28.8" y="461.2" textLength="42" lengthAdjust="spacingAndGlyphs" fill="#808080">lines</text><text x="79.2" y="461.2" textLength="33.6" lengthAdjust="spacingAndGlyphs" fill="#808080">1–15</text><text x="121.2" y="461.2" textLength="16.8" lengthAdjust="spacingAndGlyphs" fill="#808080">of</text><text x="146.4" y="461.2" textLength="16.8" lengthAdjust="spacingAndGlyphs" fill="#808080">15</text><text x="541.2" y="461.2" textLength="33.6" lengthAdjust="spacingAndGlyphs" fill="#121212" font-weight="700">Save</text><text x="616.8" y="461.2" textLength="33.6" lengthAdjust="spacingAndGlyphs" fill="#ffffff">Copy</text><text x="658.8" y="461.2" textLength="33.6" lengthAdjust="spacingAndGlyphs" fill="#ffffff">path</text><text x="734.4" y="461.2" textLength="33.6" lengthAdjust="spacingAndGlyphs" fill="#121212" font-weight="700">Open</text><text x="776.4" y="461.2" textLength="16.8" lengthAdjust="spacingAndGlyphs" fill="#121212" font-weight="700">in</text><text x="801.6" y="461.2" textLength="50.4" lengthAdjust="spacingAndGlyphs" fill="#121212" font-weight="700">editor</text><text x="894" y="461.2" textLength="42" lengthAdjust="spacingAndGlyphs" fill="#ffffff">Close</text></svg>
