<svg xmlns="http://www.w3.org/2000/svg" viewBox="0 0 964.8 500" width="964.8" height="500" font-family="ui-monospace,SFMono-Regular,Menlo,Consolas,'DejaVu Sans Mono','Liberation Mono',monospace" font-size="14" role="img" aria-label="Tade"><rect width="964.8" height="500" rx="8" fill="#111111"/><rect x="6" y="0" width="952.8" height="494" rx="5" fill="#1c1c1c"/><rect x="12" y="6" width="940.8" height="17" fill="#262626"/><rect x="12" y="23" width="16.8" height="17" fill="#262626"/><rect x="28.8" y="23" width="218.4" height="17" fill="#303030"/><rect x="247.2" y="23" width="705.6" height="17" fill="#262626"/><rect x="12" y="40" width="940.8" height="17" fill="#262626"/><rect x="12" y="57" width="243.6" height="17" fill="#262626"/><rect x="255.6" y="57" width="8.4" height="17" fill="#303030"/><rect x="264" y="57" width="688.8" height="17" fill="#262626"/><rect x="12" y="74" width="243.6" height="17" fill="#262626"/><rect x="255.6" y="74" width="8.4" height="17" fill="#303030"/><rect x="264" y="74" width="672" height="17" fill="#262626"/><rect x="936" y="74" width="8.4" height="17" fill="#585858"/><rect x="944.4" y="74" width="8.4" height="17" fill="#262626"/><rect x="12" y="91" width="243.6" height="17" fill="#262626"/><rect x="255.6" y="91" width="8.4" height="17" fill="#303030"/><rect x="264" y="91" width="672" height="17" fill="#262626"/><rect x="936" y="91" width="8.4" height="17" fill="#585858"/><rect x="944.4" y="91" width="8.4" height="17" fill="#262626"/><rect x="12" y="108" width="243.6" height="17" fill="#262626"/><rect x="255.6" y="108" width="8.4" height="17" fill="#303030"/><rect x="264" y="108" width="672" height="17" fill="#262626"/><rect x="936" y="108" width="8.4" height="17" fill="#585858"/><rect x="944.4" y="108" width="8.4" height="17" fill="#262626"/><rect x="12" y="125" width="8.4" height="17" fill="#262626"/><rect x="20.4" y="125" width="8.4" height="17" fill="#875f00"/><rect x="28.8" y="125" width="226.8" height="17" fill="#3a3a3a"/><rect x="255.6" y="125" width="8.4" height="17" fill="#303030"/><rect x="264" y="125" width="16.8" height="17" fill="#262626"/><rect x="280.8" y="125" width="109.2" height="17" fill="#444444"/><rect x="390" y="125" width="8.4" height="17" fill="#262626"/><rect x="398.4" y="125" width="168" height="17" fill="#444444"/><rect x="566.4" y="125" width="8.4" height="17" fill="#262626"/><rect x="574.8" y="125" width="243.6" height="17" fill="#444444"/><rect x="818.4" y="125" width="8.4" height="17" fill="#262626"/><rect x="826.8" y="125" width="100.8" height="17" fill="#444444"/><rect x="927.6" y="125" width="8.4" height="17" fill="#262626"/><rect x="936" y="125" width="8.4" height="17" fill="#585858"/><rect x="944.4" y="125" width="8.4" height="17" fill="#262626"/><rect x="12" y="142" width="8.4" height="17" fill="#262626"/><rect x="20.4" y="142" width="8.4" height="17" fill="#875f00"/><rect x="28.8" y="142" width="226.8" height="17" fill="#3a3a3a"/><rect x="255.6" y="142" width="8.4" height="17" fill="#303030"/><rect x="264" y="142" width="672" height="17" fill="#262626"/><rect x="936" y="142" width="8.4" height="17" fill="#585858"/><rect x="944.4" y="142" width="8.4" height="17" fill="#262626"/><rect x="12" y="159" width="243.6" height="17" fill="#262626"/><rect x="255.6" y="159" width="8.4" height="17" fill="#303030"/><rect x="264" y="159" width="672" height="17" fill="#262626"/><rect x="936" y="159" width="8.4" height="17" fill="#585858"/><rect x="944.4" y="159" width="8.4" height="17" fill="#262626"/><rect x="12" y="176" width="243.6" height="17" fill="#262626"/><rect x="255.6" y="176" width="8.4" height="17" fill="#303030"/><rect x="264" y="176" width="672" height="17" fill="#262626"/><rect x="936" y="176" width="8.4" height="17" fill="#585858"/><rect x="944.4" y="176" width="8.4" height="17" fill="#262626"/><rect x="12" y="193" width="243.6" height="17" fill="#262626"/><rect x="255.6" y="193" width="8.4" height="17" fill="#303030"/><rect x="264" y="193" width="672" height="17" fill="#262626"/><rect x="936" y="193" width="8.4" height="17" fill="#585858"/><rect x="944.4" y="193" width="8.4" height="17" fill="#262626"/><rect x="12" y="210" width="243.6" height="17" fill="#262626"/><rect x="255.6" y="210" width="8.4" height="17" fill="#303030"/><rect x="264" y="210" width="672" height="17" fill="#262626"/><rect x="936" y="210" width="8.4" height="17" fill="#585858"/><rect x="944.4" y="210" width="8.4" height="17" fill="#262626"/><rect x="12" y="227" width="243.6" height="17" fill="#262626"/><rect x="255.6" y="227" width="8.4" height="17" fill="#303030"/><rect x="264" y="227" width="672" height="17" fill="#262626"/><rect x="936" y="227" width="8.4" height="17" fill="#303030"/><rect x="944.4" y="227" width="8.4" height="17" fill="#262626"/><rect x="12" y="244" width="243.6" height="17" fill="#262626"/><rect x="255.6" y="244" width="8.4" height="17" fill="#303030"/><rect x="264" y="244" width="672" height="17" fill="#262626"/><rect x="936" y="244" width="8.4" height="17" fill="#303030"/><rect x="944.4" y="244" width="8.4" height="17" fill="#262626"/><rect x="12" y="261" width="243.6" height="17" fill="#262626"/><rect x="255.6" y="261" width="8.4" height="17" fill="#303030"/><rect x="264" y="261" width="672" height="17" fill="#262626"/><rect x="936" y="261" width="8.4" height="17" fill="#303030"/><rect x="944.4" y="261" width="8.4" height="17" fill="#262626"/><rect x="12" y="278" width="243.6" height="17" fill="#262626"/><rect x="255.6" y="278" width="8.4" height="17" fill="#303030"/><rect x="264" y="278" width="672" height="17" fill="#262626"/><rect x="936" y="278" width="8.4" height="17" fill="#303030"/><rect x="944.4" y="278" width="8.4" height="17" fill="#262626"/><rect x="12" y="295" width="243.6" height="17" fill="#262626"/><rect x="255.6" y="295" width="8.4" height="17" fill="#303030"/><rect x="264" y="295" width="672" height="17" fill="#262626"/><rect x="936" y="295" width="8.4" height="17" fill="#303030"/><rect x="944.4" y="295" width="8.4" height="17" fill="#262626"/><rect x="12" y="312" width="243.6" height="17" fill="#262626"/><rect x="255.6" y="312" width="8.4" height="17" fill="#303030"/><rect x="264" y="312" width="672" height="17" fill="#262626"/><rect x="936" y="312" width="8.4" height="17" fill="#303030"/><rect x="944.4" y="312" width="8.4" height="17" fill="#262626"/><rect x="12" y="329" width="243.6" height="17" fill="#262626"/><rect x="255.6" y="329" width="8.4" height="17" fill="#303030"/><rect x="264" y="329" width="672" height="17" fill="#262626"/><rect x="936" y="329" width="8.4" height="17" fill="#303030"/><rect x="944.4" y="329" width="8.4" height="17" fill="#262626"/><rect x="12" y="346" width="243.6" height="17" fill="#262626"/><rect x="255.6" y="346" width="8.4" height="17" fill="#303030"/><rect x="264" y="346" width="672" height="17" fill="#262626"/><rect x="936" y="346" width="8.4" height="17" fill="#303030"/><rect x="944.4" y="346" width="8.4" height="17" fill="#262626"/><rect x="12" y="363" width="243.6" height="17" fill="#262626"/><rect x="255.6" y="363" width="8.4" height="17" fill="#303030"/><rect x="264" y="363" width="672" height="17" fill="#262626"/><rect x="936" y="363" width="8.4" height="17" fill="#303030"/><rect x="944.4" y="363" width="8.4" height="17" fill="#262626"/><rect x="12" y="380" width="243.6" height="17" fill="#262626"/><rect x="255.6" y="380" width="8.4" height="17" fill="#303030"/><rect x="264" y="380" width="672" height="17" fill="#262626"/><rect x="936" y="380" width="8.4" height="17" fill="#303030"/><rect x="944.4" y="380" width="8.4" height="17" fill="#262626"/><rect x="12" y="397" width="243.6" height="17" fill="#262626"/><rect x="255.6" y="397" width="8.4" height="17" fill="#303030"/><rect x="264" y="397" width="672" height="17" fill="#262626"/><rect x="936" y="397" width="8.4" height="17" fill="#303030"/><rect x="944.4" y="397" width="8.4" height="17" fill="#262626"/><rect x="12" y="414" width="243.6" height="17" fill="#262626"/><rect x="255.6" y="414" width="8.4" height="17" fill="#303030"/><rect x="264" y="414" width="672" height="17" fill="#262626"/><rect x="936" y="414" width="8.4" height="17" fill="#303030"/><rect x="944.4" y="414" width="8.4" height="17" fill="#262626"/><rect x="12" y="431" width="243.6" height="17" fill="#262626"/><rect x="255.6" y="431" width="8.4" height="17" fill="#303030"/><rect x="264" y="431" width="688.8" height="17" fill="#262626"/><rect x="12" y="448" width="243.6" height="17" fill="#262626"/><rect x="255.6" y="448" width="8.4" height="17" fill="#303030"/><rect x="264" y="448" width="596.4" height="17" fill="#262626"/><rect x="860.4" y="448" width="67.2" height="17" fill="#ffaf00"/><rect x="927.6" y="448" width="25.2" height="17" fill="#262626"/><rect x="12" y="465" width="940.8" height="17" fill="#262626"/><rect x="262.95" y="57" width="1.05" height="408" fill="#303030"/><rect x="936" y="74" width="8.4" height="153" fill="#585858"/><rect x="20.4" y="125" width="4.2" height="34" fill="#875f00"/><rect x="943.35" y="227" width="1.05" height="204" fill="#303030"/><path d="M16.5 23Q16.5 14.5 20.4 14.5" fill="none" stroke="#8a8a8a" stroke-width="1.1"/><line x1="20.4" y1="14.5" x2="28.8" y2="14.5" stroke="#8a8a8a" stroke-width="1.1"/><line x1="129.6" y1="14.5" x2="894" y2="14.5" stroke="#8a8a8a" stroke-width="1.1"/><line x1="936" y1="14.5" x2="944.4" y2="14.5" stroke="#8a8a8a" stroke-width="1.1"/><path d="M948.5 23Q948.5 14.5 944.4 14.5" fill="none" stroke="#8a8a8a" stroke-width="1.1"/><line x1="16.5" y1="23" x2="16.5" y2="465" stroke="#8a8a8a" stroke-width="1.1"/><line x1="268.5" y1="23" x2="268.5" y2="465" stroke="#585858" stroke-width="1.1"/><line x1="948.5" y1="23" x2="948.5" y2="465" stroke="#8a8a8a" stroke-width="1.1"/><path d="M16.5 465Q16.5 473.5 20.4 473.5" fill="none" stroke="#8a8a8a" stroke-width="1.1"/><line x1="20.4" y1="473.5" x2="944.4" y2="473.5" stroke="#8a8a8a" stroke-width="1.1"/><path d="M948.5 465Q948.5 473.5 944.4 473.5" fill="none" stroke="#8a8a8a" stroke-width="1.1"/><text x="37.2" y="19.2" textLength="84" lengthAdjust="spacingAndGlyphs" fill="#eeeeee" font-weight="700">Extensions</text><text x="902.4" y="19.2" textLength="25.2" lengthAdjust="spacingAndGlyphs" fill="#808080">esc</text><text x="37.2" y="36.2" textLength="50.4" lengthAdjust="spacingAndGlyphs" fill="#808080">search</text><text x="96" y="36.2" textLength="84" lengthAdjust="spacingAndGlyphs" fill="#808080">extensions</text><text x="280.8" y="36.2" textLength="25.2" lengthAdjust="spacingAndGlyphs" fill="#ffaf00" font-weight="700">Jev</text><text x="322.8" y="36.2" textLength="67.2" lengthAdjust="spacingAndGlyphs" fill="#808080">built-in</text><text x="885.6" y="36.2" textLength="42" lengthAdjust="spacingAndGlyphs" fill="#87d787">ready</text><text x="280.8" y="53.2" textLength="8.4" lengthAdjust="spacingAndGlyphs" fill="#808080">9</text><text x="297.6" y="53.2" textLength="42" lengthAdjust="spacingAndGlyphs" fill="#808080">tools</text><text x="348" y="53.2" textLength="8.4" lengthAdjust="spacingAndGlyphs" fill="#808080">·</text><text x="364.8" y="53.2" textLength="8.4" lengthAdjust="spacingAndGlyphs" fill="#808080">3</text><text x="381.6" y="53.2" textLength="58.8" lengthAdjust="spacingAndGlyphs" fill="#808080">watches</text><text x="448.8" y="53.2" textLength="8.4" lengthAdjust="spacingAndGlyphs" fill="#808080">·</text><text x="465.6" y="53.2" textLength="8.4" lengthAdjust="spacingAndGlyphs" fill="#808080">5</text><text x="482.4" y="53.2" textLength="67.2" lengthAdjust="spacingAndGlyphs" fill="#808080">settings</text><text x="28.8" y="70.2" textLength="8.4" lengthAdjust="spacingAndGlyphs" fill="#87d787">●</text><text x="45.6" y="70.2" textLength="50.4" lengthAdjust="spacingAndGlyphs" fill="#d0d0d0">Checks</text><text x="280.8" y="87.2" textLength="33.6" lengthAdjust="spacingAndGlyphs" fill="#d0d0d0">Asks</text><text x="322.8" y="87.2" textLength="8.4" lengthAdjust="spacingAndGlyphs" fill="#d0d0d0">a</text><text x="339.6" y="87.2" textLength="42" lengthAdjust="spacingAndGlyphs" fill="#d0d0d0">judge</text><text x="390" y="87.2" textLength="58.8" lengthAdjust="spacingAndGlyphs" fill="#d0d0d0">bounded</text><text x="457.2" y="87.2" textLength="75.6" lengthAdjust="spacingAndGlyphs" fill="#d0d0d0">questions</text><text x="541.2" y="87.2" textLength="42" lengthAdjust="spacingAndGlyphs" fill="#d0d0d0">about</text><text x="591.6" y="87.2" textLength="50.4" lengthAdjust="spacingAndGlyphs" fill="#d0d0d0">diffs,</text><text x="650.4" y="87.2" textLength="42" lengthAdjust="spacingAndGlyphs" fill="#d0d0d0">logs,</text><text x="700.8" y="87.2" textLength="75.6" lengthAdjust="spacingAndGlyphs" fill="#d0d0d0">requests,</text><text x="784.8" y="87.2" textLength="42" lengthAdjust="spacingAndGlyphs" fill="#d0d0d0">plans</text><text x="835.2" y="87.2" textLength="25.2" lengthAdjust="spacingAndGlyphs" fill="#d0d0d0">and</text><text x="868.8" y="87.2" textLength="58.8" lengthAdjust="spacingAndGlyphs" fill="#d0d0d0">queues:</text><text x="28.8" y="104.2" textLength="8.4" lengthAdjust="spacingAndGlyphs" fill="#87d787">●</text><text x="45.6" y="104.2" textLength="100.8" lengthAdjust="spacingAndGlyphs" fill="#d0d0d0">Dependencies</text><text x="280.8" y="104.2" textLength="109.2" lengthAdjust="spacingAndGlyphs" fill="#d0d0d0">probabilities</text><text x="398.4" y="104.2" textLength="16.8" lengthAdjust="spacingAndGlyphs" fill="#d0d0d0">to</text><text x="423.6" y="104.2" textLength="25.2" lengthAdjust="spacingAndGlyphs" fill="#d0d0d0">act</text><text x="457.2" y="104.2" textLength="25.2" lengthAdjust="spacingAndGlyphs" fill="#d0d0d0">on,</text><text x="490.8" y="104.2" textLength="42" lengthAdjust="spacingAndGlyphs" fill="#d0d0d0">never</text><text x="541.2" y="104.2" textLength="67.2" lengthAdjust="spacingAndGlyphs" fill="#d0d0d0">verdicts</text><text x="616.8" y="104.2" textLength="25.2" lengthAdjust="spacingAndGlyphs" fill="#d0d0d0">and</text><text x="650.4" y="104.2" textLength="42" lengthAdjust="spacingAndGlyphs" fill="#d0d0d0">never</text><text x="700.8" y="104.2" textLength="50.4" lengthAdjust="spacingAndGlyphs" fill="#d0d0d0">prose.</text><text x="28.8" y="138.2" textLength="8.4" lengthAdjust="spacingAndGlyphs" fill="#87d787">●</text><text x="45.6" y="138.2" textLength="25.2" lengthAdjust="spacingAndGlyphs" fill="#eeeeee" font-weight="700">Jev</text><text x="297.6" y="138.2" textLength="75.6" lengthAdjust="spacingAndGlyphs" fill="#ffffff">Settings…</text><text x="415.2" y="138.2" textLength="33.6" lengthAdjust="spacingAndGlyphs" fill="#ffffff">What</text><text x="457.2" y="138.2" textLength="25.2" lengthAdjust="spacingAndGlyphs" fill="#ffffff">Jev</text><text x="490.8" y="138.2" textLength="58.8" lengthAdjust="spacingAndGlyphs" fill="#ffffff">flagged</text><text x="591.6" y="138.2" textLength="50.4" lengthAdjust="spacingAndGlyphs" fill="#ffffff">Review</text><text x="650.4" y="138.2" textLength="25.2" lengthAdjust="spacingAndGlyphs" fill="#ffffff">the</text><text x="684" y="138.2" textLength="50.4" lengthAdjust="spacingAndGlyphs" fill="#ffffff">latest</text><text x="742.8" y="138.2" textLength="58.8" lengthAdjust="spacingAndGlyphs" fill="#ffffff">commits</text><text x="843.6" y="138.2" textLength="33.6" lengthAdjust="spacingAndGlyphs" fill="#ffffff">Turn</text><text x="885.6" y="138.2" textLength="25.2" lengthAdjust="spacingAndGlyphs" fill="#ffffff">off</text><text x="28.8" y="172.2" textLength="8.4" lengthAdjust="spacingAndGlyphs" fill="#d787d7">◐</text><text x="45.6" y="172.2" textLength="50.4" lengthAdjust="spacingAndGlyphs" fill="#d0d0d0">Sentry</text><text x="238.8" y="172.2" textLength="8.4" lengthAdjust="spacingAndGlyphs" fill="#d787d7">!</text><text x="280.8" y="172.2" textLength="25.2" lengthAdjust="spacingAndGlyphs" fill="#a8a8a8" font-weight="700">HOW</text><text x="314.4" y="172.2" textLength="16.8" lengthAdjust="spacingAndGlyphs" fill="#a8a8a8" font-weight="700">IT</text><text x="339.6" y="172.2" textLength="16.8" lengthAdjust="spacingAndGlyphs" fill="#a8a8a8" font-weight="700">IS</text><text x="364.8" y="172.2" textLength="33.6" lengthAdjust="spacingAndGlyphs" fill="#a8a8a8" font-weight="700">USED</text><text x="280.8" y="189.2" textLength="8.4" lengthAdjust="spacingAndGlyphs" fill="#808080">·</text><text x="297.6" y="189.2" textLength="42" lengthAdjust="spacingAndGlyphs" fill="#d0d0d0">Reads</text><text x="348" y="189.2" textLength="67.2" lengthAdjust="spacingAndGlyphs" fill="#d0d0d0">branches</text><text x="423.6" y="189.2" textLength="33.6" lengthAdjust="spacingAndGlyphs" fill="#d0d0d0">that</text><text x="465.6" y="189.2" textLength="16.8" lengthAdjust="spacingAndGlyphs" fill="#d0d0d0">go</text><text x="490.8" y="189.2" textLength="42" lengthAdjust="spacingAndGlyphs" fill="#d0d0d0">quiet</text><text x="541.2" y="189.2" textLength="58.8" lengthAdjust="spacingAndGlyphs" fill="#d0d0d0">against</text><text x="608.4" y="189.2" textLength="25.2" lengthAdjust="spacingAndGlyphs" fill="#d0d0d0">the</text><text x="642" y="189.2" textLength="50.4" lengthAdjust="spacingAndGlyphs" fill="#d0d0d0">review</text><text x="700.8" y="189.2" textLength="42" lengthAdjust="spacingAndGlyphs" fill="#d0d0d0">pack,</text><text x="751.2" y="189.2" textLength="33.6" lengthAdjust="spacingAndGlyphs" fill="#d0d0d0">once</text><text x="793.2" y="189.2" textLength="25.2" lengthAdjust="spacingAndGlyphs" fill="#d0d0d0">its</text><text x="826.8" y="189.2" textLength="42" lengthAdjust="spacingAndGlyphs" fill="#d0d0d0">watch</text><text x="877.2" y="189.2" textLength="16.8" lengthAdjust="spacingAndGlyphs" fill="#d0d0d0">is</text><text x="28.8" y="206.2" textLength="8.4" lengthAdjust="spacingAndGlyphs" fill="#ff5f5f">✗</text><text x="45.6" y="206.2" textLength="58.8" lengthAdjust="spacingAndGlyphs" fill="#d0d0d0">standup</text><text x="238.8" y="206.2" textLength="8.4" lengthAdjust="spacingAndGlyphs" fill="#d787d7">!</text><text x="297.6" y="206.2" textLength="25.2" lengthAdjust="spacingAndGlyphs" fill="#d0d0d0">on.</text><text x="280.8" y="223.2" textLength="8.4" lengthAdjust="spacingAndGlyphs" fill="#808080">·</text><text x="297.6" y="223.2" textLength="42" lengthAdjust="spacingAndGlyphs" fill="#d0d0d0">Hands</text><text x="348" y="223.2" textLength="33.6" lengthAdjust="spacingAndGlyphs" fill="#d0d0d0">what</text><text x="390" y="223.2" textLength="16.8" lengthAdjust="spacingAndGlyphs" fill="#d0d0d0">it</text><text x="415.2" y="223.2" textLength="58.8" lengthAdjust="spacingAndGlyphs" fill="#d0d0d0">flagged</text><text x="482.4" y="223.2" textLength="16.8" lengthAdjust="spacingAndGlyphs" fill="#d0d0d0">to</text><text x="507.6" y="223.2" textLength="25.2" lengthAdjust="spacingAndGlyphs" fill="#d0d0d0">the</text><text x="541.2" y="223.2" textLength="42" lengthAdjust="spacingAndGlyphs" fill="#d0d0d0">agent</text><text x="591.6" y="223.2" textLength="33.6" lengthAdjust="spacingAndGlyphs" fill="#d0d0d0">that</text><text x="633.6" y="223.2" textLength="42" lengthAdjust="spacingAndGlyphs" fill="#d0d0d0">wrote</text><text x="684" y="223.2" textLength="25.2" lengthAdjust="spacingAndGlyphs" fill="#d0d0d0">it,</text><text x="717.6" y="223.2" textLength="42" lengthAdjust="spacingAndGlyphs" fill="#d0d0d0">which</text><text x="768" y="223.2" textLength="58.8" lengthAdjust="spacingAndGlyphs" fill="#d0d0d0">answers</text><text x="835.2" y="223.2" textLength="33.6" lengthAdjust="spacingAndGlyphs" fill="#d0d0d0">with</text><text x="28.8" y="240.2" textLength="8.4" lengthAdjust="spacingAndGlyphs" fill="#87d787">●</text><text x="45.6" y="240.2" textLength="50.4" lengthAdjust="spacingAndGlyphs" fill="#d0d0d0">GitHub</text><text x="297.6" y="240.2" textLength="100.8" lengthAdjust="spacingAndGlyphs" fill="#d0d0d0">jev_account.</text><text x="280.8" y="257.2" textLength="8.4" lengthAdjust="spacingAndGlyphs" fill="#808080">·</text><text x="297.6" y="257.2" textLength="50.4" lengthAdjust="spacingAndGlyphs" fill="#d0d0d0">Sweeps</text><text x="356.4" y="257.2" textLength="33.6" lengthAdjust="spacingAndGlyphs" fill="#d0d0d0">what</text><text x="398.4" y="257.2" textLength="50.4" lengthAdjust="spacingAndGlyphs" fill="#d0d0d0">nobody</text><text x="457.2" y="257.2" textLength="67.2" lengthAdjust="spacingAndGlyphs" fill="#d0d0d0">answered</text><text x="532.8" y="257.2" textLength="16.8" lengthAdjust="spacingAndGlyphs" fill="#d0d0d0">to</text><text x="558" y="257.2" textLength="25.2" lengthAdjust="spacingAndGlyphs" fill="#d0d0d0">the</text><text x="591.6" y="257.2" textLength="109.2" lengthAdjust="spacingAndGlyphs" fill="#d0d0d0">orchestrator,</text><text x="709.2" y="257.2" textLength="42" lengthAdjust="spacingAndGlyphs" fill="#d0d0d0">which</text><text x="759.6" y="257.2" textLength="50.4" lengthAdjust="spacingAndGlyphs" fill="#d0d0d0">writes</text><text x="818.4" y="257.2" textLength="25.2" lengthAdjust="spacingAndGlyphs" fill="#d0d0d0">the</text><text x="852" y="257.2" textLength="58.8" lengthAdjust="spacingAndGlyphs" fill="#d0d0d0">verdict</text><text x="28.8" y="274.2" textLength="8.4" lengthAdjust="spacingAndGlyphs" fill="#808080">○</text><text x="45.6" y="274.2" textLength="109.2" lengthAdjust="spacingAndGlyphs" fill="#808080">release-notes</text><text x="297.6" y="274.2" textLength="117.6" lengthAdjust="spacingAndGlyphs" fill="#d0d0d0">(jev_verdict).</text><text x="280.8" y="291.2" textLength="8.4" lengthAdjust="spacingAndGlyphs" fill="#808080">·</text><text x="297.6" y="291.2" textLength="33.6" lengthAdjust="spacingAndGlyphs" fill="#d0d0d0">Says</text><text x="339.6" y="291.2" textLength="42" lengthAdjust="spacingAndGlyphs" fill="#d0d0d0">which</text><text x="390" y="291.2" textLength="75.6" lengthAdjust="spacingAndGlyphs" fill="#d0d0d0">questions</text><text x="474" y="291.2" textLength="33.6" lengthAdjust="spacingAndGlyphs" fill="#d0d0d0">earn</text><text x="516" y="291.2" textLength="42" lengthAdjust="spacingAndGlyphs" fill="#d0d0d0">their</text><text x="566.4" y="291.2" textLength="50.4" lengthAdjust="spacingAndGlyphs" fill="#d0d0d0">place,</text><text x="625.2" y="291.2" textLength="25.2" lengthAdjust="spacingAndGlyphs" fill="#d0d0d0">and</text><text x="658.8" y="291.2" textLength="25.2" lengthAdjust="spacingAndGlyphs" fill="#d0d0d0">why</text><text x="692.4" y="291.2" textLength="33.6" lengthAdjust="spacingAndGlyphs" fill="#d0d0d0">each</text><text x="734.4" y="291.2" textLength="33.6" lengthAdjust="spacingAndGlyphs" fill="#d0d0d0">open</text><text x="776.4" y="291.2" textLength="58.8" lengthAdjust="spacingAndGlyphs" fill="#d0d0d0">finding</text><text x="843.6" y="291.2" textLength="16.8" lengthAdjust="spacingAndGlyphs" fill="#d0d0d0">is</text><text x="868.8" y="291.2" textLength="42" lengthAdjust="spacingAndGlyphs" fill="#d0d0d0">still</text><text x="28.8" y="308.2" textLength="8.4" lengthAdjust="spacingAndGlyphs" fill="#808080">·</text><text x="45.6" y="308.2" textLength="58.8" lengthAdjust="spacingAndGlyphs" fill="#d0d0d0">Written</text><text x="112.8" y="308.2" textLength="16.8" lengthAdjust="spacingAndGlyphs" fill="#d0d0d0">by</text><text x="138" y="308.2" textLength="33.6" lengthAdjust="spacingAndGlyphs" fill="#d0d0d0">Tade</text><text x="238.8" y="308.2" textLength="8.4" lengthAdjust="spacingAndGlyphs" fill="#808080">1</text><text x="297.6" y="308.2" textLength="42" lengthAdjust="spacingAndGlyphs" fill="#d0d0d0">open.</text><text x="280.8" y="325.2" textLength="8.4" lengthAdjust="spacingAndGlyphs" fill="#808080">·</text><text x="297.6" y="325.2" textLength="50.4" lengthAdjust="spacingAndGlyphs" fill="#d0d0d0">Judges</text><text x="356.4" y="325.2" textLength="67.2" lengthAdjust="spacingAndGlyphs" fill="#d0d0d0">anything</text><text x="432" y="325.2" textLength="16.8" lengthAdjust="spacingAndGlyphs" fill="#d0d0d0">in</text><text x="457.2" y="325.2" textLength="42" lengthAdjust="spacingAndGlyphs" fill="#d0d0d0">front</text><text x="507.6" y="325.2" textLength="16.8" lengthAdjust="spacingAndGlyphs" fill="#d0d0d0">of</text><text x="532.8" y="325.2" textLength="25.2" lengthAdjust="spacingAndGlyphs" fill="#d0d0d0">you</text><text x="566.4" y="325.2" textLength="84" lengthAdjust="spacingAndGlyphs" fill="#d0d0d0">(jev_ask):</text><text x="658.8" y="325.2" textLength="8.4" lengthAdjust="spacingAndGlyphs" fill="#d0d0d0">a</text><text x="675.6" y="325.2" textLength="42" lengthAdjust="spacingAndGlyphs" fill="#d0d0d0">diff,</text><text x="726" y="325.2" textLength="8.4" lengthAdjust="spacingAndGlyphs" fill="#d0d0d0">a</text><text x="742.8" y="325.2" textLength="33.6" lengthAdjust="spacingAndGlyphs" fill="#d0d0d0">log,</text><text x="784.8" y="325.2" textLength="75.6" lengthAdjust="spacingAndGlyphs" fill="#d0d0d0">something</text><text x="28.8" y="342.2" textLength="8.4" lengthAdjust="spacingAndGlyphs" fill="#808080">·</text><text x="45.6" y="342.2" textLength="25.2" lengthAdjust="spacingAndGlyphs" fill="#d0d0d0">MCP</text><text x="79.2" y="342.2" textLength="58.8" lengthAdjust="spacingAndGlyphs" fill="#d0d0d0">servers</text><text x="238.8" y="342.2" textLength="8.4" lengthAdjust="spacingAndGlyphs" fill="#808080">4</text><text x="297.6" y="342.2" textLength="58.8" lengthAdjust="spacingAndGlyphs" fill="#d0d0d0">pasted.</text><text x="280.8" y="359.2" textLength="8.4" lengthAdjust="spacingAndGlyphs" fill="#808080">·</text><text x="297.6" y="359.2" textLength="42" lengthAdjust="spacingAndGlyphs" fill="#d0d0d0">Reads</text><text x="348" y="359.2" textLength="50.4" lengthAdjust="spacingAndGlyphs" fill="#d0d0d0">things</text><text x="406.8" y="359.2" textLength="33.6" lengthAdjust="spacingAndGlyphs" fill="#d0d0d0">back</text><text x="448.8" y="359.2" textLength="50.4" lengthAdjust="spacingAndGlyphs" fill="#d0d0d0">before</text><text x="507.6" y="359.2" textLength="67.2" lengthAdjust="spacingAndGlyphs" fill="#d0d0d0">somebody</text><text x="583.2" y="359.2" textLength="67.2" lengthAdjust="spacingAndGlyphs" fill="#d0d0d0">guesses:</text><text x="658.8" y="359.2" textLength="8.4" lengthAdjust="spacingAndGlyphs" fill="#d0d0d0">a</text><text x="675.6" y="359.2" textLength="67.2" lengthAdjust="spacingAndGlyphs" fill="#d0d0d0">request,</text><text x="751.2" y="359.2" textLength="8.4" lengthAdjust="spacingAndGlyphs" fill="#d0d0d0">a</text><text x="768" y="359.2" textLength="42" lengthAdjust="spacingAndGlyphs" fill="#d0d0d0">plan,</text><text x="818.4" y="359.2" textLength="8.4" lengthAdjust="spacingAndGlyphs" fill="#d0d0d0">a</text><text x="835.2" y="359.2" textLength="42" lengthAdjust="spacingAndGlyphs" fill="#d0d0d0">queue</text><text x="28.8" y="376.2" textLength="8.4" lengthAdjust="spacingAndGlyphs" fill="#808080">·</text><text x="45.6" y="376.2" textLength="84" lengthAdjust="spacingAndGlyphs" fill="#d0d0d0">Harnesses'</text><text x="138" y="376.2" textLength="25.2" lengthAdjust="spacingAndGlyphs" fill="#d0d0d0">own</text><text x="238.8" y="376.2" textLength="8.4" lengthAdjust="spacingAndGlyphs" fill="#808080">2</text><text x="297.6" y="376.2" textLength="50.4" lengthAdjust="spacingAndGlyphs" fill="#d0d0d0">order.</text><text x="280.8" y="393.2" textLength="8.4" lengthAdjust="spacingAndGlyphs" fill="#808080">·</text><text x="297.6" y="393.2" textLength="58.8" lengthAdjust="spacingAndGlyphs" fill="#d0d0d0">Answers</text><text x="364.8" y="393.2" textLength="8.4" lengthAdjust="spacingAndGlyphs" fill="#d0d0d0">a</text><text x="381.6" y="393.2" textLength="67.2" lengthAdjust="spacingAndGlyphs" fill="#d0d0d0">sentence</text><text x="457.2" y="393.2" textLength="42" lengthAdjust="spacingAndGlyphs" fill="#d0d0d0">typed</text><text x="507.6" y="393.2" textLength="33.6" lengthAdjust="spacingAndGlyphs" fill="#d0d0d0">into</text><text x="549.6" y="393.2" textLength="50.4" lengthAdjust="spacingAndGlyphs" fill="#d0d0d0">search</text><text x="608.4" y="393.2" textLength="33.6" lengthAdjust="spacingAndGlyphs" fill="#d0d0d0">that</text><text x="650.4" y="393.2" textLength="58.8" lengthAdjust="spacingAndGlyphs" fill="#d0d0d0">matched</text><text x="717.6" y="393.2" textLength="16.8" lengthAdjust="spacingAndGlyphs" fill="#d0d0d0">no</text><text x="742.8" y="393.2" textLength="67.2" lengthAdjust="spacingAndGlyphs" fill="#d0d0d0">letters.</text><text x="280.8" y="410.2" textLength="8.4" lengthAdjust="spacingAndGlyphs" fill="#808080">·</text><text x="297.6" y="410.2" textLength="42" lengthAdjust="spacingAndGlyphs" fill="#d0d0d0">Reads</text><text x="348" y="410.2" textLength="8.4" lengthAdjust="spacingAndGlyphs" fill="#d0d0d0">a</text><text x="364.8" y="410.2" textLength="58.8" lengthAdjust="spacingAndGlyphs" fill="#d0d0d0">command</text><text x="432" y="410.2" textLength="25.2" lengthAdjust="spacingAndGlyphs" fill="#d0d0d0">the</text><text x="465.6" y="410.2" textLength="67.2" lengthAdjust="spacingAndGlyphs" fill="#d0d0d0">approval</text><text x="541.2" y="410.2" textLength="42" lengthAdjust="spacingAndGlyphs" fill="#d0d0d0">rules</text><text x="591.6" y="410.2" textLength="16.8" lengthAdjust="spacingAndGlyphs" fill="#d0d0d0">do</text><text x="616.8" y="410.2" textLength="25.2" lengthAdjust="spacingAndGlyphs" fill="#d0d0d0">not</text><text x="650.4" y="410.2" textLength="33.6" lengthAdjust="spacingAndGlyphs" fill="#d0d0d0">name</text><text x="692.4" y="410.2" textLength="8.4" lengthAdjust="spacingAndGlyphs" fill="#d0d0d0">—</text><text x="709.2" y="410.2" textLength="33.6" lengthAdjust="spacingAndGlyphs" fill="#d0d0d0">only</text><text x="751.2" y="410.2" textLength="33.6" lengthAdjust="spacingAndGlyphs" fill="#d0d0d0">ever</text><text x="793.2" y="410.2" textLength="50.4" lengthAdjust="spacingAndGlyphs" fill="#d0d0d0">asking</text><text x="852" y="410.2" textLength="25.2" lengthAdjust="spacingAndGlyphs" fill="#d0d0d0">for</text><text x="297.6" y="427.2" textLength="42" lengthAdjust="spacingAndGlyphs" fill="#d0d0d0">more.</text><text x="280.8" y="461.2" textLength="25.2" lengthAdjust="spacingAndGlyphs" fill="#808080">tab</text><text x="314.4" y="461.2" textLength="42" lengthAdjust="spacingAndGlyphs" fill="#808080">moves</text><text x="364.8" y="461.2" textLength="8.4" lengthAdjust="spacingAndGlyphs" fill="#808080">·</text><text x="381.6" y="461.2" textLength="16.8" lengthAdjust="spacingAndGlyphs" fill="#808080">↑↓</text><text x="406.8" y="461.2" textLength="42" lengthAdjust="spacingAndGlyphs" fill="#808080">reads</text><text x="457.2" y="461.2" textLength="8.4" lengthAdjust="spacingAndGlyphs" fill="#808080">·</text><text x="474" y="461.2" textLength="42" lengthAdjust="spacingAndGlyphs" fill="#808080">enter</text><text x="524.4" y="461.2" textLength="58.8" lengthAdjust="spacingAndGlyphs" fill="#808080">presses</text><text x="877.2" y="461.2" textLength="33.6" lengthAdjust="spacingAndGlyphs" fill="#121212" font-weight="700">Done</text></svg>
