<svg xmlns="http://www.w3.org/2000/svg" viewBox="0 0 1032 177" width="1032" height="177" font-family="ui-monospace,SFMono-Regular,Menlo,Consolas,'DejaVu Sans Mono','Liberation Mono',monospace" font-size="14" role="img" aria-label="Tade"><rect width="1032" height="177" rx="8" fill="#111111"/><rect x="6" y="0" width="1020" height="171" rx="5" fill="#1c1c1c"/><rect x="20.4" y="6" width="92.4" height="17" fill="rgb(255,175,0)"/><rect x="129.6" y="6" width="100.8" height="17" fill="rgb(255,175,0)"/><rect x="398.4" y="6" width="58.8" height="17" fill="rgb(68,68,68)"/><rect x="616.8" y="6" width="67.2" height="17" fill="rgb(188,188,188)"/><rect x="692.4" y="6" width="42" height="17" fill="rgb(188,188,188)"/><rect x="818.4" y="6" width="67.2" height="17" fill="rgb(188,188,188)"/><rect x="894" y="6" width="75.6" height="17" fill="rgb(188,188,188)"/><rect x="96" y="40" width="25.2" height="17" fill="rgb(68,68,68)"/><rect x="188.4" y="40" width="58.8" height="17" fill="rgb(68,68,68)"/><rect x="255.6" y="40" width="8.4" height="17" fill="rgb(88,88,88)"/><rect x="448.8" y="40" width="75.6" height="17" fill="rgb(255,175,0)"/><rect x="574.8" y="40" width="436.8" height="17" fill="rgb(38,38,38)"/><rect x="255.6" y="57" width="8.4" height="17" fill="rgb(88,88,88)"/><rect x="574.8" y="57" width="436.8" height="17" fill="rgb(38,38,38)"/><rect x="28.8" y="74" width="210" height="17" fill="rgb(68,68,68)"/><rect x="255.6" y="74" width="8.4" height="17" fill="rgb(88,88,88)"/><rect x="574.8" y="74" width="436.8" height="17" fill="rgb(38,38,38)"/><rect x="28.8" y="91" width="210" height="17" fill="rgb(68,68,68)"/><rect x="255.6" y="91" width="8.4" height="17" fill="rgb(88,88,88)"/><rect x="574.8" y="91" width="436.8" height="17" fill="rgb(38,38,38)"/><rect x="255.6" y="108" width="8.4" height="17" fill="rgb(88,88,88)"/><rect x="574.8" y="108" width="16.8" height="17" fill="rgb(38,38,38)"/><rect x="591.6" y="108" width="117.6" height="17" fill="rgb(215,175,255)"/><rect x="709.2" y="108" width="8.4" height="17" fill="rgb(38,38,38)"/><rect x="717.6" y="108" width="67.2" height="17" fill="rgb(68,68,68)"/><rect x="784.8" y="108" width="8.4" height="17" fill="rgb(38,38,38)"/><rect x="793.2" y="108" width="67.2" height="17" fill="rgb(68,68,68)"/><rect x="860.4" y="108" width="151.2" height="17" fill="rgb(38,38,38)"/><rect x="104.4" y="125" width="25.2" height="17" fill="rgb(68,68,68)"/><rect x="255.6" y="125" width="8.4" height="17" fill="rgb(88,88,88)"/><rect x="574.8" y="125" width="436.8" height="17" fill="rgb(38,38,38)"/><rect x="255.6" y="142" width="8.4" height="17" fill="rgb(88,88,88)"/><rect x="255.6" y="40" width="8.4" height="119" fill="rgb(88,88,88)"/><rect x="24.6" y="74" width="4.2" height="34" fill="rgb(95,215,215)"/><rect x="238.8" y="74" width="4.2" height="34" fill="rgb(68,68,68)"/><line x1="12" y1="31.5" x2="1020" y2="31.5" stroke="rgb(88,88,88)" stroke-width="2"/><line x1="268.2" y1="40" x2="268.2" y2="159" stroke="rgb(88,88,88)" stroke-width="1.1"/><path d="M579. 57Q579. 48.5 583.2 48.5" fill="none" stroke="rgb(215,175,255)" stroke-width="1.1"/><line x1="583.2" y1="48.5" x2="591.6" y2="48.5" stroke="rgb(215,175,255)" stroke-width="1.1"/><line x1="784.8" y1="48.5" x2="969.6" y2="48.5" stroke="rgb(215,175,255)" stroke-width="1.1"/><line x1="994.8" y1="48.5" x2="1003.2" y2="48.5" stroke="rgb(215,175,255)" stroke-width="1.1"/><path d="M1007.4 57Q1007.4 48.5 1003.2 48.5" fill="none" stroke="rgb(215,175,255)" stroke-width="1.1"/><line x1="272.4" y1="65.5" x2="574.8" y2="65.5" stroke="rgb(88,88,88)" stroke-width="1.1"/><line x1="579." y1="57" x2="579." y2="125" stroke="rgb(215,175,255)" stroke-width="1.1"/><line x1="1007.4" y1="57" x2="1007.4" y2="125" stroke="rgb(215,175,255)" stroke-width="1.1"/><line x1="1011.6" y1="65.5" x2="1020" y2="65.5" stroke="rgb(88,88,88)" stroke-width="1.1"/><path d="M579. 125Q579. 133.5 583.2 133.5" fill="none" stroke="rgb(215,175,255)" stroke-width="1.1"/><line x1="583.2" y1="133.5" x2="1003.2" y2="133.5" stroke="rgb(215,175,255)" stroke-width="1.1"/><path d="M1007.4 125Q1007.4 133.5 1003.2 133.5" fill="none" stroke="rgb(215,175,255)" stroke-width="1.1"/><text x="37.2" y="19.2" textLength="8.4" lengthAdjust="spacingAndGlyphs" fill="rgb(18,18,18)" font-weight="700">T</text><text x="54" y="19.2" textLength="8.4" lengthAdjust="spacingAndGlyphs" fill="rgb(18,18,18)" font-weight="700">A</text><text x="70.8" y="19.2" textLength="8.4" lengthAdjust="spacingAndGlyphs" fill="rgb(18,18,18)" font-weight="700">D</text><text x="87.6" y="19.2" textLength="8.4" lengthAdjust="spacingAndGlyphs" fill="rgb(18,18,18)" font-weight="700">E</text><text x="146.4" y="19.2" textLength="67.2" lengthAdjust="spacingAndGlyphs" fill="rgb(18,18,18)" font-weight="700">checkout</text><text x="247.2" y="19.2" textLength="50.4" lengthAdjust="spacingAndGlyphs" fill="rgb(148,148,148)">search</text><text x="331.2" y="19.2" textLength="42" lengthAdjust="spacingAndGlyphs" fill="rgb(148,148,148)">infra</text><text x="423.6" y="19.2" textLength="8.4" lengthAdjust="spacingAndGlyphs" fill="rgb(255,175,0)" font-weight="700">+</text><text x="524.4" y="19.2" textLength="8.4" lengthAdjust="spacingAndGlyphs" fill="rgb(215,175,255)">!</text><text x="541.2" y="19.2" textLength="8.4" lengthAdjust="spacingAndGlyphs" fill="rgb(215,175,255)">1</text><text x="566.4" y="19.2" textLength="8.4" lengthAdjust="spacingAndGlyphs" fill="rgb(255,175,0)">⠋</text><text x="583.2" y="19.2" textLength="8.4" lengthAdjust="spacingAndGlyphs" fill="rgb(255,175,0)">1</text><text x="633.6" y="19.2" textLength="33.6" lengthAdjust="spacingAndGlyphs" fill="rgb(18,18,18)" font-weight="700">ctrl</text><text x="684" y="19.2" textLength="8.4" lengthAdjust="spacingAndGlyphs" fill="rgb(128,128,128)">+</text><text x="709.2" y="19.2" textLength="8.4" lengthAdjust="spacingAndGlyphs" fill="rgb(18,18,18)" font-weight="700">k</text><text x="742.8" y="19.2" textLength="50.4" lengthAdjust="spacingAndGlyphs" fill="rgb(128,128,128)">search</text><text x="835.2" y="19.2" textLength="33.6" lengthAdjust="spacingAndGlyphs" fill="rgb(18,18,18)" font-weight="700">ctrl</text><text x="885.6" y="19.2" textLength="8.4" lengthAdjust="spacingAndGlyphs" fill="rgb(128,128,128)">+</text><text x="910.8" y="19.2" textLength="42" lengthAdjust="spacingAndGlyphs" fill="rgb(18,18,18)" font-weight="700">space</text><text x="978" y="19.2" textLength="33.6" lengthAdjust="spacingAndGlyphs" fill="rgb(128,128,128)">talk</text><text x="20.4" y="53.2" textLength="8.4" lengthAdjust="spacingAndGlyphs" fill="rgb(168,168,168)" font-weight="700">▾</text><text x="37.2" y="53.2" textLength="50.4" lengthAdjust="spacingAndGlyphs" fill="rgb(168,168,168)" font-weight="700">AGENTS</text><text x="104.4" y="53.2" textLength="8.4" lengthAdjust="spacingAndGlyphs" fill="rgb(188,188,188)">1</text><text x="213.6" y="53.2" textLength="8.4" lengthAdjust="spacingAndGlyphs" fill="rgb(255,175,0)" font-weight="700">+</text><text x="280.8" y="53.2" textLength="67.2" lengthAdjust="spacingAndGlyphs" fill="rgb(238,238,238)" font-weight="700">checkout</text><text x="356.4" y="53.2" textLength="8.4" lengthAdjust="spacingAndGlyphs" fill="rgb(238,238,238)" font-weight="700">›</text><text x="373.2" y="53.2" textLength="58.8" lengthAdjust="spacingAndGlyphs" fill="rgb(238,238,238)" font-weight="700">refunds</text><text x="465.6" y="53.2" textLength="42" lengthAdjust="spacingAndGlyphs" fill="rgb(18,18,18)" font-weight="700">agent</text><text x="541.2" y="53.2" textLength="33.6" lengthAdjust="spacingAndGlyphs" fill="rgb(148,148,148)">work</text><text x="600" y="53.2" textLength="8.4" lengthAdjust="spacingAndGlyphs" fill="rgb(215,175,255)" font-weight="700">●</text><text x="616.8" y="53.2" textLength="50.4" lengthAdjust="spacingAndGlyphs">search</text><text x="675.6" y="53.2" textLength="8.4" lengthAdjust="spacingAndGlyphs">›</text><text x="692.4" y="53.2" textLength="84" lengthAdjust="spacingAndGlyphs">pagination</text><text x="978" y="53.2" textLength="8.4" lengthAdjust="spacingAndGlyphs" fill="rgb(128,128,128)">×</text><text x="591.6" y="70.2" textLength="42" lengthAdjust="spacingAndGlyphs" fill="rgb(215,175,255)">wants</text><text x="642" y="70.2" textLength="67.2" lengthAdjust="spacingAndGlyphs" fill="rgb(215,175,255)">approval</text><text x="969.6" y="70.2" textLength="25.2" lengthAdjust="spacingAndGlyphs" fill="rgb(128,128,128)">12s</text><text x="37.2" y="87.2" textLength="8.4" lengthAdjust="spacingAndGlyphs" fill="rgb(255,175,0)">⠋</text><text x="54" y="87.2" textLength="58.8" lengthAdjust="spacingAndGlyphs" fill="rgb(238,238,238)" font-weight="700">refunds</text><text x="188.4" y="87.2" textLength="42" lengthAdjust="spacingAndGlyphs" fill="rgb(128,128,128)">$0.62</text><text x="591.6" y="87.2" textLength="33.6" lengthAdjust="spacingAndGlyphs" fill="rgb(238,238,238)" font-weight="700">bash</text><text x="642" y="87.2" textLength="16.8" lengthAdjust="spacingAndGlyphs">rm</text><text x="667.2" y="87.2" textLength="25.2" lengthAdjust="spacingAndGlyphs">-rf</text><text x="700.8" y="87.2" textLength="100.8" lengthAdjust="spacingAndGlyphs">node_modules</text><text x="810" y="87.2" textLength="16.8" lengthAdjust="spacingAndGlyphs">&amp;&amp;</text><text x="835.2" y="87.2" textLength="25.2" lengthAdjust="spacingAndGlyphs">npm</text><text x="868.8" y="87.2" textLength="16.8" lengthAdjust="spacingAndGlyphs">ci</text><text x="54" y="104.2" textLength="58.8" lengthAdjust="spacingAndGlyphs" fill="rgb(128,128,128)">working</text><text x="608.4" y="121.2" textLength="42" lengthAdjust="spacingAndGlyphs" fill="rgb(18,18,18)" font-weight="700">Allow</text><text x="658.8" y="121.2" textLength="33.6" lengthAdjust="spacingAndGlyphs" fill="rgb(18,18,18)" font-weight="700">once</text><text x="734.4" y="121.2" textLength="33.6" lengthAdjust="spacingAndGlyphs" fill="rgb(238,238,238)">Deny</text><text x="810" y="121.2" textLength="33.6" lengthAdjust="spacingAndGlyphs" fill="rgb(238,238,238)">Show</text><text x="20.4" y="138.2" textLength="8.4" lengthAdjust="spacingAndGlyphs" fill="rgb(168,168,168)" font-weight="700">▾</text><text x="37.2" y="138.2" textLength="58.8" lengthAdjust="spacingAndGlyphs" fill="rgb(168,168,168)" font-weight="700">CHANGES</text><text x="112.8" y="138.2" textLength="8.4" lengthAdjust="spacingAndGlyphs" fill="rgb(188,188,188)">3</text><text x="188.4" y="138.2" textLength="16.8" lengthAdjust="spacingAndGlyphs" fill="rgb(128,128,128)">vs</text><text x="213.6" y="138.2" textLength="33.6" lengthAdjust="spacingAndGlyphs" fill="rgb(128,128,128)">main</text><text x="28.8" y="155.2" textLength="8.4" lengthAdjust="spacingAndGlyphs" fill="rgb(215,175,255)">M</text><text x="45.6" y="155.2" textLength="100.8" lengthAdjust="spacingAndGlyphs">package.json</text><text x="205.2" y="155.2" textLength="16.8" lengthAdjust="spacingAndGlyphs" fill="rgb(135,215,135)">+2</text><text x="230.4" y="155.2" textLength="16.8" lengthAdjust="spacingAndGlyphs" fill="rgb(255,95,95)">−1</text></svg>
