<svg xmlns="http://www.w3.org/2000/svg" viewBox="0 0 864 517" width="864" height="517" font-family="ui-monospace,SFMono-Regular,Menlo,Consolas,'DejaVu Sans Mono','Liberation Mono',monospace" font-size="14" role="img" aria-label="Tade"><rect width="864" height="517" rx="8" fill="#111111"/><rect x="6" y="0" width="852" height="511" rx="5" fill="#1c1c1c"/><rect x="12" y="6" width="840" height="17" fill="#262626"/><rect x="12" y="23" width="25.2" height="17" fill="#262626"/><rect x="37.2" y="23" width="789.6" height="17" fill="#303030"/><rect x="826.8" y="23" width="25.2" height="17" fill="#262626"/><rect x="12" y="40" width="840" height="17" fill="#262626"/><rect x="12" y="57" width="840" height="17" fill="#262626"/><rect x="12" y="74" width="67.2" height="17" fill="#262626"/><rect x="79.2" y="74" width="25.2" height="17" fill="#444444"/><rect x="104.4" y="74" width="747.6" height="17" fill="#262626"/><rect x="12" y="91" width="840" height="17" fill="#262626"/><rect x="12" y="108" width="8.4" height="17" fill="#262626"/><rect x="20.4" y="108" width="8.4" height="17" fill="#875f00"/><rect x="28.8" y="108" width="814.8" height="17" fill="#3a3a3a"/><rect x="843.6" y="108" width="8.4" height="17" fill="#262626"/><rect x="12" y="125" width="840" height="17" fill="#262626"/><rect x="12" y="142" width="840" height="17" fill="#262626"/><rect x="12" y="159" width="92.4" height="17" fill="#262626"/><rect x="104.4" y="159" width="25.2" height="17" fill="#444444"/><rect x="129.6" y="159" width="722.4" height="17" fill="#262626"/><rect x="12" y="176" width="840" height="17" fill="#262626"/><rect x="12" y="193" width="840" height="17" fill="#262626"/><rect x="12" y="210" width="840" height="17" fill="#262626"/><rect x="12" y="227" width="840" height="17" fill="#262626"/><rect x="12" y="244" width="840" height="17" fill="#262626"/><rect x="12" y="261" width="840" height="17" fill="#262626"/><rect x="12" y="278" width="840" height="17" fill="#262626"/><rect x="12" y="295" width="840" height="17" fill="#262626"/><rect x="12" y="312" width="840" height="17" fill="#262626"/><rect x="12" y="329" width="840" height="17" fill="#262626"/><rect x="12" y="346" width="840" height="17" fill="#262626"/><rect x="12" y="363" width="840" height="17" fill="#262626"/><rect x="12" y="380" width="840" height="17" fill="#262626"/><rect x="12" y="397" width="840" height="17" fill="#262626"/><rect x="12" y="414" width="840" height="17" fill="#262626"/><rect x="12" y="431" width="840" height="17" fill="#262626"/><rect x="12" y="448" width="840" height="17" fill="#262626"/><rect x="12" y="465" width="840" height="17" fill="#262626"/><rect x="12" y="482" width="840" height="17" fill="#262626"/><rect x="104.4" y="23" width="1.05" height="17" fill="#eeeeee"/><rect x="20.4" y="108" width="4.2" height="17" fill="#875f00"/><path d="M16.5 23Q16.5 14.5 20.4 14.5" fill="none" stroke="#8a8a8a" stroke-width="1.1"/><line x1="20.4" y1="14.5" x2="28.8" y2="14.5" stroke="#8a8a8a" stroke-width="1.1"/><line x1="96" y1="14.5" x2="768" y2="14.5" stroke="#8a8a8a" stroke-width="1.1"/><line x1="835.2" y1="14.5" x2="843.6" y2="14.5" stroke="#8a8a8a" stroke-width="1.1"/><path d="M847.5 23Q847.5 14.5 843.6 14.5" fill="none" stroke="#8a8a8a" stroke-width="1.1"/><line x1="16.5" y1="23" x2="16.5" y2="482" stroke="#8a8a8a" stroke-width="1.1"/><line x1="847.5" y1="23" x2="847.5" y2="482" stroke="#8a8a8a" stroke-width="1.1"/><path d="M16.5 482Q16.5 490.5 20.4 490.5" fill="none" stroke="#8a8a8a" stroke-width="1.1"/><line x1="20.4" y1="490.5" x2="843.6" y2="490.5" stroke="#8a8a8a" stroke-width="1.1"/><path d="M847.5 482Q847.5 490.5 843.6 490.5" fill="none" stroke="#8a8a8a" stroke-width="1.1"/><text x="37.2" y="19.2" textLength="50.4" lengthAdjust="spacingAndGlyphs" fill="#eeeeee" font-weight="700">Search</text><text x="776.4" y="19.2" textLength="50.4" lengthAdjust="spacingAndGlyphs" fill="#808080">ctrl+k</text><text x="28.8" y="36.2" textLength="8.4" lengthAdjust="spacingAndGlyphs" fill="#ffaf00" font-weight="700">⌕</text><text x="45.6" y="36.2" textLength="58.8" lengthAdjust="spacingAndGlyphs" fill="#eeeeee">webhook</text><text x="62.4" y="53.2" textLength="8.4" lengthAdjust="spacingAndGlyphs" fill="#949494">@</text><text x="79.2" y="53.2" textLength="50.4" lengthAdjust="spacingAndGlyphs" fill="#949494">agents</text><text x="171.6" y="53.2" textLength="8.4" lengthAdjust="spacingAndGlyphs" fill="#949494">#</text><text x="188.4" y="53.2" textLength="16.8" lengthAdjust="spacingAndGlyphs" fill="#949494">in</text><text x="213.6" y="53.2" textLength="42" lengthAdjust="spacingAndGlyphs" fill="#949494">files</text><text x="297.6" y="53.2" textLength="8.4" lengthAdjust="spacingAndGlyphs" fill="#949494">&gt;</text><text x="314.4" y="53.2" textLength="58.8" lengthAdjust="spacingAndGlyphs" fill="#949494">actions</text><text x="650.4" y="53.2" textLength="58.8" lengthAdjust="spacingAndGlyphs" fill="#808080">file:42</text><text x="717.6" y="53.2" textLength="33.6" lengthAdjust="spacingAndGlyphs" fill="#808080">goes</text><text x="759.6" y="53.2" textLength="16.8" lengthAdjust="spacingAndGlyphs" fill="#808080">to</text><text x="784.8" y="53.2" textLength="8.4" lengthAdjust="spacingAndGlyphs" fill="#808080">a</text><text x="801.6" y="53.2" textLength="33.6" lengthAdjust="spacingAndGlyphs" fill="#808080">line</text><text x="28.8" y="87.2" textLength="42" lengthAdjust="spacingAndGlyphs" fill="#a8a8a8" font-weight="700">FILES</text><text x="87.6" y="87.2" textLength="8.4" lengthAdjust="spacingAndGlyphs" fill="#bcbcbc">4</text><text x="37.2" y="104.2" textLength="8.4" lengthAdjust="spacingAndGlyphs" fill="#ffaf00">□</text><text x="54" y="104.2" textLength="33.6" lengthAdjust="spacingAndGlyphs" fill="#d0d0d0">src/</text><text x="87.6" y="104.2" textLength="58.8" lengthAdjust="spacingAndGlyphs" fill="#d787d7">webhook</text><text x="146.4" y="104.2" textLength="33.6" lengthAdjust="spacingAndGlyphs" fill="#d0d0d0">s.ts</text><text x="196.8" y="104.2" textLength="67.2" lengthAdjust="spacingAndGlyphs" fill="#808080">checkout</text><text x="37.2" y="121.2" textLength="8.4" lengthAdjust="spacingAndGlyphs" fill="#ffaf00">□</text><text x="54" y="121.2" textLength="33.6" lengthAdjust="spacingAndGlyphs" fill="#eeeeee" font-weight="700">src/</text><text x="87.6" y="121.2" textLength="58.8" lengthAdjust="spacingAndGlyphs" fill="#d787d7">webhook</text><text x="146.4" y="121.2" textLength="33.6" lengthAdjust="spacingAndGlyphs" fill="#eeeeee" font-weight="700">s.ts</text><text x="196.8" y="121.2" textLength="67.2" lengthAdjust="spacingAndGlyphs" fill="#808080">checkout</text><text x="272.4" y="121.2" textLength="8.4" lengthAdjust="spacingAndGlyphs" fill="#808080">›</text><text x="289.2" y="121.2" textLength="84" lengthAdjust="spacingAndGlyphs" fill="#808080">stripe-v15</text><text x="37.2" y="138.2" textLength="8.4" lengthAdjust="spacingAndGlyphs" fill="#ffaf00">□</text><text x="54" y="138.2" textLength="33.6" lengthAdjust="spacingAndGlyphs" fill="#d0d0d0">src/</text><text x="87.6" y="138.2" textLength="58.8" lengthAdjust="spacingAndGlyphs" fill="#d787d7">webhook</text><text x="146.4" y="138.2" textLength="75.6" lengthAdjust="spacingAndGlyphs" fill="#d0d0d0">s.test.ts</text><text x="238.8" y="138.2" textLength="67.2" lengthAdjust="spacingAndGlyphs" fill="#808080">checkout</text><text x="37.2" y="155.2" textLength="8.4" lengthAdjust="spacingAndGlyphs" fill="#ffaf00">□</text><text x="54" y="155.2" textLength="33.6" lengthAdjust="spacingAndGlyphs" fill="#d0d0d0">src/</text><text x="87.6" y="155.2" textLength="58.8" lengthAdjust="spacingAndGlyphs" fill="#d787d7">webhook</text><text x="146.4" y="155.2" textLength="75.6" lengthAdjust="spacingAndGlyphs" fill="#d0d0d0">s.test.ts</text><text x="238.8" y="155.2" textLength="67.2" lengthAdjust="spacingAndGlyphs" fill="#808080">checkout</text><text x="314.4" y="155.2" textLength="8.4" lengthAdjust="spacingAndGlyphs" fill="#808080">›</text><text x="331.2" y="155.2" textLength="84" lengthAdjust="spacingAndGlyphs" fill="#808080">stripe-v15</text><text x="28.8" y="172.2" textLength="16.8" lengthAdjust="spacingAndGlyphs" fill="#a8a8a8" font-weight="700">IN</text><text x="54" y="172.2" textLength="42" lengthAdjust="spacingAndGlyphs" fill="#a8a8a8" font-weight="700">FILES</text><text x="112.8" y="172.2" textLength="8.4" lengthAdjust="spacingAndGlyphs" fill="#bcbcbc">2</text><text x="37.2" y="189.2" textLength="8.4" lengthAdjust="spacingAndGlyphs" fill="#ffaf00">≡</text><text x="54" y="189.2" textLength="142.8" lengthAdjust="spacingAndGlyphs" fill="#d0d0d0">src/webhooks.ts:9</text><text x="213.6" y="189.2" textLength="67.2" lengthAdjust="spacingAndGlyphs" fill="#808080">checkout</text><text x="289.2" y="189.2" textLength="8.4" lengthAdjust="spacingAndGlyphs" fill="#808080">›</text><text x="306" y="189.2" textLength="84" lengthAdjust="spacingAndGlyphs" fill="#808080">stripe-v15</text><text x="406.8" y="189.2" textLength="42" lengthAdjust="spacingAndGlyphs" fill="#808080">…vent</text><text x="457.2" y="189.2" textLength="8.4" lengthAdjust="spacingAndGlyphs" fill="#808080">=</text><text x="474" y="189.2" textLength="42" lengthAdjust="spacingAndGlyphs" fill="#808080">await</text><text x="524.4" y="189.2" textLength="58.8" lengthAdjust="spacingAndGlyphs" fill="#808080">stripe.</text><text x="583.2" y="189.2" textLength="58.8" lengthAdjust="spacingAndGlyphs" fill="#d787d7">webhook</text><text x="642" y="189.2" textLength="184.8" lengthAdjust="spacingAndGlyphs" fill="#808080">s.constructEventAsync(</text><text x="37.2" y="206.2" textLength="8.4" lengthAdjust="spacingAndGlyphs" fill="#ffaf00">≡</text><text x="54" y="206.2" textLength="92.4" lengthAdjust="spacingAndGlyphs" fill="#d0d0d0">README.md:7</text><text x="163.2" y="206.2" textLength="67.2" lengthAdjust="spacingAndGlyphs" fill="#808080">checkout</text><text x="247.2" y="206.2" textLength="25.2" lengthAdjust="spacingAndGlyphs" fill="#808080">…t`</text><text x="280.8" y="206.2" textLength="33.6" lengthAdjust="spacingAndGlyphs" fill="#808080">runs</text><text x="322.8" y="206.2" textLength="92.4" lengthAdjust="spacingAndGlyphs" fill="#808080">everything,</text><text x="423.6" y="206.2" textLength="58.8" lengthAdjust="spacingAndGlyphs" fill="#d787d7">webhook</text><text x="482.4" y="206.2" textLength="8.4" lengthAdjust="spacingAndGlyphs" fill="#808080">s</text><text x="499.2" y="206.2" textLength="67.2" lengthAdjust="spacingAndGlyphs" fill="#808080">included</text><text x="28.8" y="478.2" textLength="16.8" lengthAdjust="spacingAndGlyphs" fill="#808080">↑↓</text><text x="54" y="478.2" textLength="33.6" lengthAdjust="spacingAndGlyphs" fill="#808080">move</text><text x="96" y="478.2" textLength="8.4" lengthAdjust="spacingAndGlyphs" fill="#808080">·</text><text x="112.8" y="478.2" textLength="25.2" lengthAdjust="spacingAndGlyphs" fill="#808080">tab</text><text x="146.4" y="478.2" textLength="75.6" lengthAdjust="spacingAndGlyphs" fill="#808080">completes</text><text x="230.4" y="478.2" textLength="8.4" lengthAdjust="spacingAndGlyphs" fill="#808080">·</text><text x="247.2" y="478.2" textLength="42" lengthAdjust="spacingAndGlyphs" fill="#808080">enter</text><text x="297.6" y="478.2" textLength="42" lengthAdjust="spacingAndGlyphs" fill="#808080">opens</text><text x="348" y="478.2" textLength="8.4" lengthAdjust="spacingAndGlyphs" fill="#808080">·</text><text x="364.8" y="478.2" textLength="25.2" lengthAdjust="spacingAndGlyphs" fill="#808080">esc</text><text x="398.4" y="478.2" textLength="50.4" lengthAdjust="spacingAndGlyphs" fill="#808080">closes</text></svg>
