<svg xmlns="http://www.w3.org/2000/svg" viewBox="0 0 964.8 500" width="964.8" height="500" font-family="ui-monospace,SFMono-Regular,Menlo,Consolas,'DejaVu Sans Mono','Liberation Mono',monospace" font-size="14" role="img" aria-label="Tade"><rect width="964.8" height="500" rx="8" fill="#111111"/><rect x="6" y="0" width="952.8" height="494" rx="5" fill="#1c1c1c"/><rect x="12" y="6" width="940.8" height="17" fill="#262626"/><rect x="12" y="23" width="16.8" height="17" fill="#262626"/><rect x="28.8" y="23" width="218.4" height="17" fill="#303030"/><rect x="247.2" y="23" width="705.6" height="17" fill="#262626"/><rect x="12" y="40" width="940.8" height="17" fill="#262626"/><rect x="12" y="57" width="243.6" height="17" fill="#262626"/><rect x="255.6" y="57" width="8.4" height="17" fill="#303030"/><rect x="264" y="57" width="8.4" height="17" fill="#262626"/><rect x="272.4" y="57" width="8.4" height="17" fill="#875f00"/><rect x="280.8" y="57" width="142.8" height="17" fill="#3a3a3a"/><rect x="423.6" y="57" width="67.2" height="17" fill="#eeeeee"/><rect x="490.8" y="57" width="25.2" height="17" fill="#3a3a3a"/><rect x="516" y="57" width="75.6" height="17" fill="#eeeeee"/><rect x="591.6" y="57" width="25.2" height="17" fill="#3a3a3a"/><rect x="616.8" y="57" width="92.4" height="17" fill="#626262"/><rect x="709.2" y="57" width="226.8" height="17" fill="#3a3a3a"/><rect x="936" y="57" width="8.4" height="17" fill="#303030"/><rect x="944.4" y="57" width="8.4" height="17" fill="#262626"/><rect x="12" y="74" width="243.6" height="17" fill="#262626"/><rect x="255.6" y="74" width="8.4" height="17" fill="#303030"/><rect x="264" y="74" width="8.4" height="17" fill="#262626"/><rect x="272.4" y="74" width="8.4" height="17" fill="#875f00"/><rect x="280.8" y="74" width="655.2" height="17" fill="#3a3a3a"/><rect x="936" y="74" width="8.4" height="17" fill="#303030"/><rect x="944.4" y="74" width="8.4" height="17" fill="#262626"/><rect x="12" y="91" width="243.6" height="17" fill="#262626"/><rect x="255.6" y="91" width="8.4" height="17" fill="#303030"/><rect x="264" y="91" width="8.4" height="17" fill="#262626"/><rect x="272.4" y="91" width="8.4" height="17" fill="#875f00"/><rect x="280.8" y="91" width="655.2" height="17" fill="#3a3a3a"/><rect x="936" y="91" width="8.4" height="17" fill="#303030"/><rect x="944.4" y="91" width="8.4" height="17" fill="#262626"/><rect x="12" y="108" width="243.6" height="17" fill="#262626"/><rect x="255.6" y="108" width="8.4" height="17" fill="#303030"/><rect x="264" y="108" width="151.2" height="17" fill="#262626"/><rect x="415.2" y="108" width="151.2" height="17" fill="#ffaf00"/><rect x="566.4" y="108" width="8.4" height="17" fill="#262626"/><rect x="574.8" y="108" width="294" height="17" fill="#444444"/><rect x="868.8" y="108" width="67.2" height="17" fill="#262626"/><rect x="936" y="108" width="8.4" height="17" fill="#303030"/><rect x="944.4" y="108" width="8.4" height="17" fill="#262626"/><rect x="12" y="125" width="243.6" height="17" fill="#262626"/><rect x="255.6" y="125" width="8.4" height="17" fill="#303030"/><rect x="264" y="125" width="672" height="17" fill="#262626"/><rect x="936" y="125" width="8.4" height="17" fill="#303030"/><rect x="944.4" y="125" width="8.4" height="17" fill="#262626"/><rect x="12" y="142" width="243.6" height="17" fill="#262626"/><rect x="255.6" y="142" width="8.4" height="17" fill="#303030"/><rect x="264" y="142" width="151.2" height="17" fill="#262626"/><rect x="415.2" y="142" width="336" height="17" fill="#303030"/><rect x="751.2" y="142" width="184.8" height="17" fill="#262626"/><rect x="936" y="142" width="8.4" height="17" fill="#303030"/><rect x="944.4" y="142" width="8.4" height="17" fill="#262626"/><rect x="12" y="159" width="243.6" height="17" fill="#262626"/><rect x="255.6" y="159" width="8.4" height="17" fill="#303030"/><rect x="264" y="159" width="672" height="17" fill="#262626"/><rect x="936" y="159" width="8.4" height="17" fill="#303030"/><rect x="944.4" y="159" width="8.4" height="17" fill="#262626"/><rect x="12" y="176" width="243.6" height="17" fill="#262626"/><rect x="255.6" y="176" width="8.4" height="17" fill="#303030"/><rect x="264" y="176" width="151.2" height="17" fill="#262626"/><rect x="415.2" y="176" width="394.8" height="17" fill="#303030"/><rect x="810" y="176" width="126" height="17" fill="#262626"/><rect x="936" y="176" width="8.4" height="17" fill="#303030"/><rect x="944.4" y="176" width="8.4" height="17" fill="#262626"/><rect x="12" y="193" width="8.4" height="17" fill="#262626"/><rect x="20.4" y="193" width="8.4" height="17" fill="#875f00"/><rect x="28.8" y="193" width="226.8" height="17" fill="#3a3a3a"/><rect x="255.6" y="193" width="8.4" height="17" fill="#303030"/><rect x="264" y="193" width="285.6" height="17" fill="#262626"/><rect x="549.6" y="193" width="67.2" height="17" fill="#444444"/><rect x="616.8" y="193" width="319.2" height="17" fill="#262626"/><rect x="936" y="193" width="8.4" height="17" fill="#303030"/><rect x="944.4" y="193" width="8.4" height="17" fill="#262626"/><rect x="12" y="210" width="8.4" height="17" fill="#262626"/><rect x="20.4" y="210" width="8.4" height="17" fill="#875f00"/><rect x="28.8" y="210" width="226.8" height="17" fill="#3a3a3a"/><rect x="255.6" y="210" width="8.4" height="17" fill="#303030"/><rect x="264" y="210" width="672" height="17" fill="#262626"/><rect x="936" y="210" width="8.4" height="17" fill="#303030"/><rect x="944.4" y="210" width="8.4" height="17" fill="#262626"/><rect x="12" y="227" width="243.6" height="17" fill="#262626"/><rect x="255.6" y="227" width="8.4" height="17" fill="#303030"/><rect x="264" y="227" width="151.2" height="17" fill="#262626"/><rect x="415.2" y="227" width="33.6" height="17" fill="#bcbcbc"/><rect x="448.8" y="227" width="33.6" height="17" fill="#444444"/><rect x="482.4" y="227" width="453.6" height="17" fill="#262626"/><rect x="936" y="227" width="8.4" height="17" fill="#303030"/><rect x="944.4" y="227" width="8.4" height="17" fill="#262626"/><rect x="12" y="244" width="243.6" height="17" fill="#262626"/><rect x="255.6" y="244" width="8.4" height="17" fill="#303030"/><rect x="264" y="244" width="672" height="17" fill="#262626"/><rect x="936" y="244" width="8.4" height="17" fill="#303030"/><rect x="944.4" y="244" width="8.4" height="17" fill="#262626"/><rect x="12" y="261" width="243.6" height="17" fill="#262626"/><rect x="255.6" y="261" width="8.4" height="17" fill="#303030"/><rect x="264" y="261" width="151.2" height="17" fill="#262626"/><rect x="415.2" y="261" width="33.6" height="17" fill="#444444"/><rect x="448.8" y="261" width="33.6" height="17" fill="#ffaf00"/><rect x="482.4" y="261" width="453.6" height="17" fill="#262626"/><rect x="936" y="261" width="8.4" height="17" fill="#303030"/><rect x="944.4" y="261" width="8.4" height="17" fill="#262626"/><rect x="12" y="278" width="243.6" height="17" fill="#262626"/><rect x="255.6" y="278" width="8.4" height="17" fill="#303030"/><rect x="264" y="278" width="672" height="17" fill="#262626"/><rect x="936" y="278" width="8.4" height="17" fill="#303030"/><rect x="944.4" y="278" width="8.4" height="17" fill="#262626"/><rect x="12" y="295" width="243.6" height="17" fill="#262626"/><rect x="255.6" y="295" width="8.4" height="17" fill="#303030"/><rect x="264" y="295" width="151.2" height="17" fill="#262626"/><rect x="415.2" y="295" width="42" height="17" fill="#444444"/><rect x="457.2" y="295" width="25.2" height="17" fill="#262626"/><rect x="482.4" y="295" width="42" height="17" fill="#444444"/><rect x="524.4" y="295" width="411.6" height="17" fill="#262626"/><rect x="936" y="295" width="8.4" height="17" fill="#303030"/><rect x="944.4" y="295" width="8.4" height="17" fill="#262626"/><rect x="12" y="312" width="243.6" height="17" fill="#262626"/><rect x="255.6" y="312" width="8.4" height="17" fill="#303030"/><rect x="264" y="312" width="672" height="17" fill="#262626"/><rect x="936" y="312" width="8.4" height="17" fill="#303030"/><rect x="944.4" y="312" width="8.4" height="17" fill="#262626"/><rect x="12" y="329" width="243.6" height="17" fill="#262626"/><rect x="255.6" y="329" width="8.4" height="17" fill="#303030"/><rect x="264" y="329" width="151.2" height="17" fill="#262626"/><rect x="415.2" y="329" width="75.6" height="17" fill="#303030"/><rect x="490.8" y="329" width="33.6" height="17" fill="#262626"/><rect x="524.4" y="329" width="75.6" height="17" fill="#303030"/><rect x="600" y="329" width="336" height="17" fill="#262626"/><rect x="936" y="329" width="8.4" height="17" fill="#303030"/><rect x="944.4" y="329" width="8.4" height="17" fill="#262626"/><rect x="12" y="346" width="243.6" height="17" fill="#262626"/><rect x="255.6" y="346" width="8.4" height="17" fill="#303030"/><rect x="264" y="346" width="672" height="17" fill="#262626"/><rect x="936" y="346" width="8.4" height="17" fill="#303030"/><rect x="944.4" y="346" width="8.4" height="17" fill="#262626"/><rect x="12" y="363" width="243.6" height="17" fill="#262626"/><rect x="255.6" y="363" width="8.4" height="17" fill="#303030"/><rect x="264" y="363" width="672" height="17" fill="#262626"/><rect x="936" y="363" width="8.4" height="17" fill="#303030"/><rect x="944.4" y="363" width="8.4" height="17" fill="#262626"/><rect x="12" y="380" width="243.6" height="17" fill="#262626"/><rect x="255.6" y="380" width="8.4" height="17" fill="#303030"/><rect x="264" y="380" width="672" height="17" fill="#262626"/><rect x="936" y="380" width="8.4" height="17" fill="#303030"/><rect x="944.4" y="380" width="8.4" height="17" fill="#262626"/><rect x="12" y="397" width="243.6" height="17" fill="#262626"/><rect x="255.6" y="397" width="8.4" height="17" fill="#303030"/><rect x="264" y="397" width="672" height="17" fill="#262626"/><rect x="936" y="397" width="8.4" height="17" fill="#303030"/><rect x="944.4" y="397" width="8.4" height="17" fill="#262626"/><rect x="12" y="414" width="243.6" height="17" fill="#262626"/><rect x="255.6" y="414" width="8.4" height="17" fill="#303030"/><rect x="264" y="414" width="672" height="17" fill="#262626"/><rect x="936" y="414" width="8.4" height="17" fill="#303030"/><rect x="944.4" y="414" width="8.4" height="17" fill="#262626"/><rect x="12" y="431" width="243.6" height="17" fill="#262626"/><rect x="255.6" y="431" width="8.4" height="17" fill="#303030"/><rect x="264" y="431" width="688.8" height="17" fill="#262626"/><rect x="12" y="448" width="243.6" height="17" fill="#262626"/><rect x="255.6" y="448" width="8.4" height="17" fill="#303030"/><rect x="264" y="448" width="420" height="17" fill="#262626"/><rect x="684" y="448" width="168" height="17" fill="#444444"/><rect x="852" y="448" width="8.4" height="17" fill="#262626"/><rect x="860.4" y="448" width="67.2" height="17" fill="#ffaf00"/><rect x="927.6" y="448" width="25.2" height="17" fill="#262626"/><rect x="12" y="465" width="940.8" height="17" fill="#262626"/><rect x="262.95" y="57" width="1.05" height="408" fill="#303030"/><rect x="272.4" y="57" width="4.2" height="51" fill="#875f00"/><rect x="943.35" y="57" width="1.05" height="374" fill="#303030"/><rect x="20.4" y="193" width="4.2" height="34" fill="#875f00"/><rect x="415.2" y="207.88" width="117.6" height="2.13" fill="#585858"/><rect x="415.2" y="227" width="33.6" height="17" fill="#bcbcbc"/><rect x="448.8" y="261" width="33.6" height="17" fill="#ffaf00"/><path d="M16.5 23Q16.5 14.5 20.4 14.5" fill="none" stroke="#8a8a8a" stroke-width="1.1"/><line x1="20.4" y1="14.5" x2="28.8" y2="14.5" stroke="#8a8a8a" stroke-width="1.1"/><line x1="112.8" y1="14.5" x2="709.2" y2="14.5" stroke="#8a8a8a" stroke-width="1.1"/><line x1="936" y1="14.5" x2="944.4" y2="14.5" stroke="#8a8a8a" stroke-width="1.1"/><path d="M948.5 23Q948.5 14.5 944.4 14.5" fill="none" stroke="#8a8a8a" stroke-width="1.1"/><line x1="16.5" y1="23" x2="16.5" y2="465" stroke="#8a8a8a" stroke-width="1.1"/><line x1="268.5" y1="23" x2="268.5" y2="465" stroke="#585858" stroke-width="1.1"/><line x1="948.5" y1="23" x2="948.5" y2="465" stroke="#8a8a8a" stroke-width="1.1"/><line x1="448.8" y1="235.5" x2="482.4" y2="235.5" stroke="#808080" stroke-width="1.1"/><line x1="415.2" y1="269.5" x2="448.8" y2="269.5" stroke="#808080" stroke-width="1.1"/><path d="M16.5 465Q16.5 473.5 20.4 473.5" fill="none" stroke="#8a8a8a" stroke-width="1.1"/><line x1="20.4" y1="473.5" x2="944.4" y2="473.5" stroke="#8a8a8a" stroke-width="1.1"/><path d="M948.5 465Q948.5 473.5 944.4 473.5" fill="none" stroke="#8a8a8a" stroke-width="1.1"/><text x="37.2" y="19.2" textLength="67.2" lengthAdjust="spacingAndGlyphs" fill="#eeeeee" font-weight="700">Settings</text><text x="717.6" y="19.2" textLength="159.6" lengthAdjust="spacingAndGlyphs" fill="#808080">~/.tade/config.yaml</text><text x="885.6" y="19.2" textLength="8.4" lengthAdjust="spacingAndGlyphs" fill="#808080">·</text><text x="902.4" y="19.2" textLength="25.2" lengthAdjust="spacingAndGlyphs" fill="#808080">esc</text><text x="37.2" y="36.2" textLength="50.4" lengthAdjust="spacingAndGlyphs" fill="#808080">search</text><text x="96" y="36.2" textLength="67.2" lengthAdjust="spacingAndGlyphs" fill="#808080">settings</text><text x="280.8" y="36.2" textLength="42" lengthAdjust="spacingAndGlyphs" fill="#ffaf00" font-weight="700">Voice</text><text x="37.2" y="70.2" textLength="50.4" lengthAdjust="spacingAndGlyphs" fill="#d0d0d0">Agents</text><text x="196.8" y="70.2" textLength="50.4" lengthAdjust="spacingAndGlyphs" fill="#808080">bypass</text><text x="280.8" y="70.2" textLength="33.6" lengthAdjust="spacingAndGlyphs" fill="#eeeeee" font-weight="700">Push</text><text x="322.8" y="70.2" textLength="16.8" lengthAdjust="spacingAndGlyphs" fill="#eeeeee" font-weight="700">to</text><text x="348" y="70.2" textLength="33.6" lengthAdjust="spacingAndGlyphs" fill="#eeeeee" font-weight="700">talk</text><text x="440.4" y="70.2" textLength="33.6" lengthAdjust="spacingAndGlyphs" fill="#121212" font-weight="700">ctrl</text><text x="499.2" y="70.2" textLength="8.4" lengthAdjust="spacingAndGlyphs" fill="#808080">+</text><text x="532.8" y="70.2" textLength="42" lengthAdjust="spacingAndGlyphs" fill="#121212" font-weight="700">space</text><text x="633.6" y="70.2" textLength="58.8" lengthAdjust="spacingAndGlyphs" fill="#ffffff">Change…</text><text x="415.2" y="87.2" textLength="8.4" lengthAdjust="spacingAndGlyphs" fill="#87d787">✓</text><text x="432" y="87.2" textLength="33.6" lengthAdjust="spacingAndGlyphs" fill="#808080">hold</text><text x="474" y="87.2" textLength="42" lengthAdjust="spacingAndGlyphs" fill="#808080">works</text><text x="524.4" y="87.2" textLength="33.6" lengthAdjust="spacingAndGlyphs" fill="#808080">here</text><text x="37.2" y="104.2" textLength="50.4" lengthAdjust="spacingAndGlyphs" fill="#d0d0d0">Models</text><text x="280.8" y="121.2" textLength="33.6" lengthAdjust="spacingAndGlyphs" fill="#d0d0d0">Mode</text><text x="432" y="121.2" textLength="8.4" lengthAdjust="spacingAndGlyphs" fill="#121212" font-weight="700">◉</text><text x="448.8" y="121.2" textLength="33.6" lengthAdjust="spacingAndGlyphs" fill="#121212" font-weight="700">Hold</text><text x="490.8" y="121.2" textLength="16.8" lengthAdjust="spacingAndGlyphs" fill="#121212" font-weight="700">to</text><text x="516" y="121.2" textLength="33.6" lengthAdjust="spacingAndGlyphs" fill="#121212" font-weight="700">talk</text><text x="591.6" y="121.2" textLength="8.4" lengthAdjust="spacingAndGlyphs" fill="#ffffff">○</text><text x="608.4" y="121.2" textLength="42" lengthAdjust="spacingAndGlyphs" fill="#ffffff">Press</text><text x="658.8" y="121.2" textLength="16.8" lengthAdjust="spacingAndGlyphs" fill="#ffffff">to</text><text x="684" y="121.2" textLength="50.4" lengthAdjust="spacingAndGlyphs" fill="#ffffff">start,</text><text x="742.8" y="121.2" textLength="42" lengthAdjust="spacingAndGlyphs" fill="#ffffff">press</text><text x="793.2" y="121.2" textLength="16.8" lengthAdjust="spacingAndGlyphs" fill="#ffffff">to</text><text x="818.4" y="121.2" textLength="33.6" lengthAdjust="spacingAndGlyphs" fill="#ffffff">stop</text><text x="37.2" y="138.2" textLength="100.8" lengthAdjust="spacingAndGlyphs" fill="#d0d0d0">Orchestrator</text><text x="280.8" y="155.2" textLength="50.4" lengthAdjust="spacingAndGlyphs" fill="#d0d0d0">Speech</text><text x="339.6" y="155.2" textLength="16.8" lengthAdjust="spacingAndGlyphs" fill="#d0d0d0">to</text><text x="364.8" y="155.2" textLength="33.6" lengthAdjust="spacingAndGlyphs" fill="#d0d0d0">text</text><text x="423.6" y="155.2" textLength="58.8" lengthAdjust="spacingAndGlyphs" fill="#eeeeee">whisper</text><text x="490.8" y="155.2" textLength="8.4" lengthAdjust="spacingAndGlyphs" fill="#eeeeee">·</text><text x="507.6" y="155.2" textLength="58.8" lengthAdjust="spacingAndGlyphs" fill="#eeeeee">base.en</text><text x="574.8" y="155.2" textLength="8.4" lengthAdjust="spacingAndGlyphs" fill="#eeeeee">·</text><text x="591.6" y="155.2" textLength="16.8" lengthAdjust="spacingAndGlyphs" fill="#eeeeee">on</text><text x="616.8" y="155.2" textLength="33.6" lengthAdjust="spacingAndGlyphs" fill="#eeeeee">this</text><text x="658.8" y="155.2" textLength="58.8" lengthAdjust="spacingAndGlyphs" fill="#eeeeee">machine</text><text x="734.4" y="155.2" textLength="8.4" lengthAdjust="spacingAndGlyphs" fill="#eeeeee">▾</text><text x="826.8" y="155.2" textLength="8.4" lengthAdjust="spacingAndGlyphs" fill="#808080">↻</text><text x="843.6" y="155.2" textLength="16.8" lengthAdjust="spacingAndGlyphs" fill="#808080">on</text><text x="868.8" y="155.2" textLength="58.8" lengthAdjust="spacingAndGlyphs" fill="#808080">restart</text><text x="37.2" y="172.2" textLength="50.4" lengthAdjust="spacingAndGlyphs" fill="#d0d0d0">Checks</text><text x="280.8" y="189.2" textLength="84" lengthAdjust="spacingAndGlyphs" fill="#d0d0d0">Microphone</text><text x="423.6" y="189.2" textLength="58.8" lengthAdjust="spacingAndGlyphs" fill="#eeeeee">MacBook</text><text x="490.8" y="189.2" textLength="25.2" lengthAdjust="spacingAndGlyphs" fill="#eeeeee">Pro</text><text x="524.4" y="189.2" textLength="84" lengthAdjust="spacingAndGlyphs" fill="#eeeeee">Microphone</text><text x="826.8" y="189.2" textLength="8.4" lengthAdjust="spacingAndGlyphs" fill="#808080">↻</text><text x="843.6" y="189.2" textLength="16.8" lengthAdjust="spacingAndGlyphs" fill="#808080">on</text><text x="868.8" y="189.2" textLength="58.8" lengthAdjust="spacingAndGlyphs" fill="#808080">restart</text><text x="37.2" y="206.2" textLength="42" lengthAdjust="spacingAndGlyphs" fill="#eeeeee" font-weight="700">Voice</text><text x="566.4" y="206.2" textLength="33.6" lengthAdjust="spacingAndGlyphs" fill="#ffffff">Test</text><text x="37.2" y="240.2" textLength="50.4" lengthAdjust="spacingAndGlyphs" fill="#d0d0d0">Window</text><text x="280.8" y="240.2" textLength="42" lengthAdjust="spacingAndGlyphs" fill="#d0d0d0">Muted</text><text x="490.8" y="240.2" textLength="25.2" lengthAdjust="spacingAndGlyphs" fill="#949494">off</text><text x="37.2" y="274.2" textLength="67.2" lengthAdjust="spacingAndGlyphs" fill="#d0d0d0">Projects</text><text x="222" y="274.2" textLength="8.4" lengthAdjust="spacingAndGlyphs" fill="#d787d7">●</text><text x="238.8" y="274.2" textLength="8.4" lengthAdjust="spacingAndGlyphs" fill="#d787d7">1</text><text x="280.8" y="274.2" textLength="50.4" lengthAdjust="spacingAndGlyphs" fill="#d0d0d0">Spoken</text><text x="339.6" y="274.2" textLength="58.8" lengthAdjust="spacingAndGlyphs" fill="#d0d0d0">replies</text><text x="490.8" y="274.2" textLength="16.8" lengthAdjust="spacingAndGlyphs" fill="#eeeeee" font-weight="700">on</text><text x="37.2" y="308.2" textLength="58.8" lengthAdjust="spacingAndGlyphs" fill="#d0d0d0">Journal</text><text x="280.8" y="308.2" textLength="109.2" lengthAdjust="spacingAndGlyphs" fill="#d0d0d0">Interruptions</text><text x="432" y="308.2" textLength="8.4" lengthAdjust="spacingAndGlyphs" fill="#ffffff">‹</text><text x="465.6" y="308.2" textLength="8.4" lengthAdjust="spacingAndGlyphs" fill="#eeeeee" font-weight="700">6</text><text x="499.2" y="308.2" textLength="8.4" lengthAdjust="spacingAndGlyphs" fill="#ffffff">›</text><text x="826.8" y="308.2" textLength="8.4" lengthAdjust="spacingAndGlyphs" fill="#808080">↻</text><text x="843.6" y="308.2" textLength="16.8" lengthAdjust="spacingAndGlyphs" fill="#808080">on</text><text x="868.8" y="308.2" textLength="58.8" lengthAdjust="spacingAndGlyphs" fill="#808080">restart</text><text x="37.2" y="342.2" textLength="75.6" lengthAdjust="spacingAndGlyphs" fill="#d0d0d0">Telemetry</text><text x="280.8" y="342.2" textLength="42" lengthAdjust="spacingAndGlyphs" fill="#d0d0d0">Quiet</text><text x="331.2" y="342.2" textLength="42" lengthAdjust="spacingAndGlyphs" fill="#d0d0d0">hours</text><text x="423.6" y="342.2" textLength="42" lengthAdjust="spacingAndGlyphs" fill="#eeeeee">22:00</text><text x="499.2" y="342.2" textLength="16.8" lengthAdjust="spacingAndGlyphs" fill="#808080">to</text><text x="532.8" y="342.2" textLength="42" lengthAdjust="spacingAndGlyphs" fill="#eeeeee">07:00</text><text x="826.8" y="342.2" textLength="8.4" lengthAdjust="spacingAndGlyphs" fill="#808080">↻</text><text x="843.6" y="342.2" textLength="16.8" lengthAdjust="spacingAndGlyphs" fill="#808080">on</text><text x="868.8" y="342.2" textLength="58.8" lengthAdjust="spacingAndGlyphs" fill="#808080">restart</text><text x="37.2" y="376.2" textLength="75.6" lengthAdjust="spacingAndGlyphs" fill="#d0d0d0">Shortcuts</text><text x="37.2" y="410.2" textLength="67.2" lengthAdjust="spacingAndGlyphs" fill="#d0d0d0">Accounts</text><text x="222" y="410.2" textLength="8.4" lengthAdjust="spacingAndGlyphs" fill="#87d787">●</text><text x="238.8" y="410.2" textLength="8.4" lengthAdjust="spacingAndGlyphs" fill="#87d787">3</text><text x="37.2" y="444.2" textLength="58.8" lengthAdjust="spacingAndGlyphs" fill="#d0d0d0">Updates</text><text x="280.8" y="444.2" textLength="8.4" lengthAdjust="spacingAndGlyphs" fill="#87d787">●</text><text x="297.6" y="444.2" textLength="42" lengthAdjust="spacingAndGlyphs" fill="#808080">Saved</text><text x="348" y="444.2" textLength="16.8" lengthAdjust="spacingAndGlyphs" fill="#808080">as</text><text x="373.2" y="444.2" textLength="25.2" lengthAdjust="spacingAndGlyphs" fill="#808080">you</text><text x="406.8" y="444.2" textLength="50.4" lengthAdjust="spacingAndGlyphs" fill="#808080">change</text><text x="465.6" y="444.2" textLength="25.2" lengthAdjust="spacingAndGlyphs" fill="#808080">it.</text><text x="700.8" y="461.2" textLength="33.6" lengthAdjust="spacingAndGlyphs" fill="#ffffff">Open</text><text x="742.8" y="461.2" textLength="92.4" lengthAdjust="spacingAndGlyphs" fill="#ffffff">config.yaml</text><text x="877.2" y="461.2" textLength="33.6" lengthAdjust="spacingAndGlyphs" fill="#121212" font-weight="700">Done</text></svg>
