<svg xmlns="http://www.w3.org/2000/svg" viewBox="0 0 1032 381" width="1032" height="381" font-family="ui-monospace,SFMono-Regular,Menlo,Consolas,'DejaVu Sans Mono','Liberation Mono',monospace" font-size="14" role="img" aria-label="Tade"><rect width="1032" height="381" rx="8" fill="#111111"/><rect x="6" y="0" width="1020" height="375" rx="5" fill="#1c1c1c"/><rect x="96" y="6" width="25.2" height="17" fill="#444444"/><rect x="188.4" y="6" width="58.8" height="17" fill="#444444"/><rect x="255.6" y="6" width="8.4" height="17" fill="#585858"/><rect x="364.8" y="6" width="75.6" height="17" fill="#ffaf00"/><rect x="516" y="6" width="42" height="17" fill="#444444"/><rect x="558" y="6" width="42" height="17" fill="#ff5f5f"/><rect x="700.8" y="6" width="42" height="17" fill="#444444"/><rect x="801.6" y="6" width="159.6" height="17" fill="#444444"/><rect x="969.6" y="6" width="42" height="17" fill="#ff5f5f"/><rect x="255.6" y="23" width="8.4" height="17" fill="#585858"/><rect x="20.4" y="40" width="8.4" height="17" fill="#875f00"/><rect x="28.8" y="40" width="218.4" height="17" fill="#444444"/><rect x="255.6" y="40" width="8.4" height="17" fill="#585858"/><rect x="868.8" y="40" width="42" height="17" fill="#444444"/><rect x="919.2" y="40" width="42" height="17" fill="#444444"/><rect x="969.6" y="40" width="42" height="17" fill="#444444"/><rect x="20.4" y="57" width="8.4" height="17" fill="#875f00"/><rect x="28.8" y="57" width="218.4" height="17" fill="#444444"/><rect x="255.6" y="57" width="8.4" height="17" fill="#585858"/><rect x="255.6" y="74" width="8.4" height="17" fill="#585858"/><rect x="255.6" y="91" width="8.4" height="17" fill="#585858"/><rect x="255.6" y="108" width="8.4" height="17" fill="#585858"/><rect x="255.6" y="125" width="8.4" height="17" fill="#585858"/><rect x="255.6" y="142" width="8.4" height="17" fill="#585858"/><rect x="104.4" y="159" width="25.2" height="17" fill="#444444"/><rect x="255.6" y="159" width="8.4" height="17" fill="#585858"/><rect x="255.6" y="176" width="8.4" height="17" fill="#585858"/><rect x="255.6" y="193" width="8.4" height="17" fill="#585858"/><rect x="255.6" y="210" width="8.4" height="17" fill="#585858"/><rect x="255.6" y="227" width="8.4" height="17" fill="#303030"/><rect x="255.6" y="244" width="8.4" height="17" fill="#303030"/><rect x="255.6" y="261" width="8.4" height="17" fill="#303030"/><rect x="255.6" y="278" width="8.4" height="17" fill="#303030"/><rect x="255.6" y="295" width="8.4" height="17" fill="#303030"/><rect x="255.6" y="312" width="8.4" height="17" fill="#303030"/><rect x="306" y="312" width="117.6" height="17" fill="#5f875f"/><rect x="432" y="312" width="67.2" height="17" fill="#444444"/><rect x="255.6" y="329" width="8.4" height="17" fill="#303030"/><rect x="255.6" y="346" width="8.4" height="17" fill="#303030"/><rect x="255.6" y="6" width="8.4" height="221" fill="#585858"/><rect x="20.4" y="40" width="4.2" height="34" fill="#875f00"/><rect x="262.95" y="227" width="1.05" height="136" fill="#303030"/><line x1="268.5" y1="6" x2="268.5" y2="363" stroke="#585858" stroke-width="1.1"/><line x1="272.4" y1="31.5" x2="1020" y2="31.5" stroke="#585858" stroke-width="1.1"/><line x1="646.5" y1="40" x2="646.5" y2="363" stroke="#585858" stroke-width="1.1"/><path d="M293.5 295Q293.5 286.5 297.6 286.5" fill="none" stroke="#585858" stroke-width="1.1"/><line x1="297.6" y1="286.5" x2="306" y2="286.5" stroke="#585858" stroke-width="1.1"/><line x1="440.4" y1="286.5" x2="616.8" y2="286.5" stroke="#585858" stroke-width="1.1"/><path d="M621.5 295Q621.5 286.5 616.8 286.5" fill="none" stroke="#585858" stroke-width="1.1"/><line x1="293.5" y1="295" x2="293.5" y2="329" stroke="#585858" stroke-width="1.1"/><line x1="621.5" y1="295" x2="621.5" y2="329" stroke="#585858" stroke-width="1.1"/><path d="M293.5 329Q293.5 337.5 297.6 337.5" fill="none" stroke="#585858" stroke-width="1.1"/><line x1="297.6" y1="337.5" x2="616.8" y2="337.5" stroke="#585858" stroke-width="1.1"/><path d="M621.5 329Q621.5 337.5 616.8 337.5" fill="none" stroke="#585858" stroke-width="1.1"/><text x="20.4" y="19.2" textLength="8.4" lengthAdjust="spacingAndGlyphs" fill="#a8a8a8" font-weight="700">▾</text><text x="37.2" y="19.2" textLength="50.4" lengthAdjust="spacingAndGlyphs" fill="#a8a8a8" font-weight="700">AGENTS</text><text x="104.4" y="19.2" textLength="8.4" lengthAdjust="spacingAndGlyphs" fill="#bcbcbc">2</text><text x="213.6" y="19.2" textLength="8.4" lengthAdjust="spacingAndGlyphs" fill="#ffaf00" font-weight="700">+</text><text x="280.8" y="19.2" textLength="58.8" lengthAdjust="spacingAndGlyphs" fill="#eeeeee" font-weight="700">stripe-</text><text x="339.6" y="19.2" textLength="8.4" lengthAdjust="spacingAndGlyphs" fill="#d0d0d0">…</text><text x="381.6" y="19.2" textLength="42" lengthAdjust="spacingAndGlyphs" fill="#121212" font-weight="700">agent</text><text x="457.2" y="19.2" textLength="42" lengthAdjust="spacingAndGlyphs" fill="#949494">shell</text><text x="532.8" y="19.2" textLength="8.4" lengthAdjust="spacingAndGlyphs" fill="#ffffff">▾</text><text x="574.8" y="19.2" textLength="8.4" lengthAdjust="spacingAndGlyphs" fill="#121212" font-weight="700">×</text><text x="616.8" y="19.2" textLength="58.8" lengthAdjust="spacingAndGlyphs" fill="#949494">actions</text><text x="717.6" y="19.2" textLength="8.4" lengthAdjust="spacingAndGlyphs" fill="#ffaf00" font-weight="700">+</text><text x="818.4" y="19.2" textLength="109.2" lengthAdjust="spacingAndGlyphs" fill="#ffffff">claude-opus-5</text><text x="936" y="19.2" textLength="8.4" lengthAdjust="spacingAndGlyphs" fill="#ffffff">▾</text><text x="986.4" y="19.2" textLength="8.4" lengthAdjust="spacingAndGlyphs" fill="#121212" font-weight="700">×</text><text x="37.2" y="53.2" textLength="8.4" lengthAdjust="spacingAndGlyphs" fill="#d787d7">!</text><text x="54" y="53.2" textLength="84" lengthAdjust="spacingAndGlyphs" fill="#eeeeee" font-weight="700">stripe-v15</text><text x="188.4" y="53.2" textLength="42" lengthAdjust="spacingAndGlyphs" fill="#808080">$1.26</text><text x="658.8" y="53.2" textLength="42" lengthAdjust="spacingAndGlyphs" fill="#eeeeee" font-weight="700">shell</text><text x="717.6" y="53.2" textLength="50.4" lengthAdjust="spacingAndGlyphs" fill="#ffaf00" font-weight="700">typing</text><text x="776.4" y="53.2" textLength="33.6" lengthAdjust="spacingAndGlyphs" fill="#ffaf00" font-weight="700">here</text><text x="885.6" y="53.2" textLength="8.4" lengthAdjust="spacingAndGlyphs" fill="#ffffff">⇄</text><text x="936" y="53.2" textLength="8.4" lengthAdjust="spacingAndGlyphs" fill="#ffffff">⇅</text><text x="986.4" y="53.2" textLength="8.4" lengthAdjust="spacingAndGlyphs" fill="#ffffff">×</text><text x="54" y="70.2" textLength="42" lengthAdjust="spacingAndGlyphs" fill="#808080">wants</text><text x="104.4" y="70.2" textLength="25.2" lengthAdjust="spacingAndGlyphs" fill="#808080">you</text><text x="138" y="70.2" textLength="16.8" lengthAdjust="spacingAndGlyphs" fill="#808080">to</text><text x="163.2" y="70.2" textLength="58.8" lengthAdjust="spacingAndGlyphs" fill="#808080">approve</text><text x="222" y="70.2" textLength="8.4" lengthAdjust="spacingAndGlyphs" fill="#d0d0d0">…</text><text x="650.4" y="70.2" textLength="67.2" lengthAdjust="spacingAndGlyphs" fill="#d0d0d0">checkout</text><text x="726" y="70.2" textLength="8.4" lengthAdjust="spacingAndGlyphs" fill="#d0d0d0">$</text><text x="742.8" y="70.2" textLength="25.2" lengthAdjust="spacingAndGlyphs" fill="#d0d0d0">git</text><text x="776.4" y="70.2" textLength="33.6" lengthAdjust="spacingAndGlyphs" fill="#d0d0d0">diff</text><text x="818.4" y="70.2" textLength="50.4" lengthAdjust="spacingAndGlyphs" fill="#d0d0d0">--stat</text><text x="658.8" y="87.2" textLength="126" lengthAdjust="spacingAndGlyphs" fill="#d0d0d0">src/webhooks.ts</text><text x="793.2" y="87.2" textLength="8.4" lengthAdjust="spacingAndGlyphs" fill="#d0d0d0">|</text><text x="810" y="87.2" textLength="16.8" lengthAdjust="spacingAndGlyphs" fill="#d0d0d0">16</text><text x="835.2" y="87.2" textLength="92.4" lengthAdjust="spacingAndGlyphs" fill="#d0d0d0">++++++-----</text><text x="37.2" y="104.2" textLength="8.4" lengthAdjust="spacingAndGlyphs" fill="#ffaf00">⠋</text><text x="54" y="104.2" textLength="58.8" lengthAdjust="spacingAndGlyphs" fill="#d0d0d0">refunds</text><text x="188.4" y="104.2" textLength="42" lengthAdjust="spacingAndGlyphs" fill="#808080">$0.62</text><text x="658.8" y="104.2" textLength="8.4" lengthAdjust="spacingAndGlyphs" fill="#d0d0d0">1</text><text x="675.6" y="104.2" textLength="33.6" lengthAdjust="spacingAndGlyphs" fill="#d0d0d0">file</text><text x="717.6" y="104.2" textLength="67.2" lengthAdjust="spacingAndGlyphs" fill="#d0d0d0">changed,</text><text x="793.2" y="104.2" textLength="16.8" lengthAdjust="spacingAndGlyphs" fill="#d0d0d0">12</text><text x="818.4" y="104.2" textLength="117.6" lengthAdjust="spacingAndGlyphs" fill="#d0d0d0">insertions(+),</text><text x="54" y="121.2" textLength="58.8" lengthAdjust="spacingAndGlyphs" fill="#808080">working</text><text x="658.8" y="121.2" textLength="8.4" lengthAdjust="spacingAndGlyphs" fill="#d0d0d0">4</text><text x="675.6" y="121.2" textLength="100.8" lengthAdjust="spacingAndGlyphs" fill="#d0d0d0">deletions(-)</text><text x="650.4" y="138.2" textLength="67.2" lengthAdjust="spacingAndGlyphs" fill="#d0d0d0">checkout</text><text x="726" y="138.2" textLength="8.4" lengthAdjust="spacingAndGlyphs" fill="#d0d0d0">$</text><text x="20.4" y="155.2" textLength="8.4" lengthAdjust="spacingAndGlyphs" fill="#a8a8a8" font-weight="700">▸</text><text x="37.2" y="155.2" textLength="42" lengthAdjust="spacingAndGlyphs" fill="#a8a8a8" font-weight="700">SMART</text><text x="87.6" y="155.2" textLength="42" lengthAdjust="spacingAndGlyphs" fill="#a8a8a8" font-weight="700">QUEUE</text><text x="213.6" y="155.2" textLength="33.6" lengthAdjust="spacingAndGlyphs" fill="#808080">none</text><text x="20.4" y="172.2" textLength="8.4" lengthAdjust="spacingAndGlyphs" fill="#a8a8a8" font-weight="700">▾</text><text x="37.2" y="172.2" textLength="58.8" lengthAdjust="spacingAndGlyphs" fill="#a8a8a8" font-weight="700">CHANGES</text><text x="112.8" y="172.2" textLength="8.4" lengthAdjust="spacingAndGlyphs" fill="#bcbcbc">3</text><text x="188.4" y="172.2" textLength="16.8" lengthAdjust="spacingAndGlyphs" fill="#808080">vs</text><text x="213.6" y="172.2" textLength="33.6" lengthAdjust="spacingAndGlyphs" fill="#808080">main</text><text x="28.8" y="189.2" textLength="8.4" lengthAdjust="spacingAndGlyphs" fill="#d787d7">M</text><text x="45.6" y="189.2" textLength="100.8" lengthAdjust="spacingAndGlyphs" fill="#d0d0d0">package.json</text><text x="205.2" y="189.2" textLength="16.8" lengthAdjust="spacingAndGlyphs" fill="#87d787">+2</text><text x="230.4" y="189.2" textLength="16.8" lengthAdjust="spacingAndGlyphs" fill="#ff5f5f">−1</text><text x="289.2" y="189.2" textLength="8.4" lengthAdjust="spacingAndGlyphs" fill="#d0d0d0">●</text><text x="306" y="189.2" textLength="75.6" lengthAdjust="spacingAndGlyphs" fill="#d0d0d0">Upgrading</text><text x="390" y="189.2" textLength="50.4" lengthAdjust="spacingAndGlyphs" fill="#d0d0d0">stripe</text><text x="448.8" y="189.2" textLength="16.8" lengthAdjust="spacingAndGlyphs" fill="#d0d0d0">to</text><text x="474" y="189.2" textLength="33.6" lengthAdjust="spacingAndGlyphs" fill="#d0d0d0">v15:</text><text x="516" y="189.2" textLength="25.2" lengthAdjust="spacingAndGlyphs" fill="#d0d0d0">the</text><text x="549.6" y="189.2" textLength="58.8" lengthAdjust="spacingAndGlyphs" fill="#d0d0d0">webhook</text><text x="28.8" y="206.2" textLength="8.4" lengthAdjust="spacingAndGlyphs" fill="#87d787">A</text><text x="45.6" y="206.2" textLength="151.2" lengthAdjust="spacingAndGlyphs" fill="#d0d0d0">…/webhooks.test.ts</text><text x="222" y="206.2" textLength="25.2" lengthAdjust="spacingAndGlyphs" fill="#87d787">+48</text><text x="306" y="206.2" textLength="75.6" lengthAdjust="spacingAndGlyphs" fill="#d0d0d0">signature</text><text x="390" y="206.2" textLength="25.2" lengthAdjust="spacingAndGlyphs" fill="#d0d0d0">API</text><text x="423.6" y="206.2" textLength="67.2" lengthAdjust="spacingAndGlyphs" fill="#d0d0d0">changed.</text><text x="28.8" y="223.2" textLength="8.4" lengthAdjust="spacingAndGlyphs" fill="#d787d7">M</text><text x="45.6" y="223.2" textLength="126" lengthAdjust="spacingAndGlyphs" fill="#d0d0d0">src/webhooks.ts</text><text x="196.8" y="223.2" textLength="25.2" lengthAdjust="spacingAndGlyphs" fill="#87d787">+12</text><text x="230.4" y="223.2" textLength="16.8" lengthAdjust="spacingAndGlyphs" fill="#ff5f5f">−4</text><text x="289.2" y="240.2" textLength="8.4" lengthAdjust="spacingAndGlyphs" fill="#d0d0d0">▸</text><text x="306" y="240.2" textLength="33.6" lengthAdjust="spacingAndGlyphs" fill="#d0d0d0">Read</text><text x="348" y="240.2" textLength="126" lengthAdjust="spacingAndGlyphs" fill="#d0d0d0">src/webhooks.ts</text><text x="20.4" y="257.2" textLength="8.4" lengthAdjust="spacingAndGlyphs" fill="#a8a8a8" font-weight="700">▾</text><text x="37.2" y="257.2" textLength="42" lengthAdjust="spacingAndGlyphs" fill="#a8a8a8" font-weight="700">FILES</text><text x="289.2" y="257.2" textLength="8.4" lengthAdjust="spacingAndGlyphs" fill="#d0d0d0">▸</text><text x="306" y="257.2" textLength="33.6" lengthAdjust="spacingAndGlyphs" fill="#d0d0d0">Edit</text><text x="348" y="257.2" textLength="126" lengthAdjust="spacingAndGlyphs" fill="#d0d0d0">src/webhooks.ts</text><text x="490.8" y="257.2" textLength="25.2" lengthAdjust="spacingAndGlyphs" fill="#d0d0d0">+12</text><text x="524.4" y="257.2" textLength="16.8" lengthAdjust="spacingAndGlyphs" fill="#d0d0d0">−4</text><text x="37.2" y="274.2" textLength="8.4" lengthAdjust="spacingAndGlyphs" fill="#ffaf00">▾</text><text x="54" y="274.2" textLength="33.6" lengthAdjust="spacingAndGlyphs" fill="#ffaf00">src/</text><text x="289.2" y="274.2" textLength="8.4" lengthAdjust="spacingAndGlyphs" fill="#d0d0d0">▸</text><text x="306" y="274.2" textLength="33.6" lengthAdjust="spacingAndGlyphs" fill="#d0d0d0">bash</text><text x="348" y="274.2" textLength="25.2" lengthAdjust="spacingAndGlyphs" fill="#d0d0d0">npm</text><text x="381.6" y="274.2" textLength="8.4" lengthAdjust="spacingAndGlyphs" fill="#d0d0d0">i</text><text x="398.4" y="274.2" textLength="75.6" lengthAdjust="spacingAndGlyphs" fill="#d0d0d0">stripe@15</text><text x="70.8" y="291.2" textLength="134.4" lengthAdjust="spacingAndGlyphs" fill="#d0d0d0">webhooks.test.ts</text><text x="314.4" y="291.2" textLength="42" lengthAdjust="spacingAndGlyphs" fill="#d787d7">wants</text><text x="364.8" y="291.2" textLength="67.2" lengthAdjust="spacingAndGlyphs" fill="#d787d7">approval</text><text x="70.8" y="308.2" textLength="92.4" lengthAdjust="spacingAndGlyphs" fill="#d0d0d0">webhooks.ts</text><text x="306" y="308.2" textLength="33.6" lengthAdjust="spacingAndGlyphs" fill="#eeeeee" font-weight="700">bash</text><text x="356.4" y="308.2" textLength="25.2" lengthAdjust="spacingAndGlyphs" fill="#d0d0d0">npm</text><text x="390" y="308.2" textLength="8.4" lengthAdjust="spacingAndGlyphs" fill="#d0d0d0">i</text><text x="406.8" y="308.2" textLength="75.6" lengthAdjust="spacingAndGlyphs" fill="#d0d0d0">stripe@15</text><text x="37.2" y="325.2" textLength="8.4" lengthAdjust="spacingAndGlyphs" fill="#ffaf00">▸</text><text x="54" y="325.2" textLength="42" lengthAdjust="spacingAndGlyphs" fill="#ffaf00">test/</text><text x="322.8" y="325.2" textLength="42" lengthAdjust="spacingAndGlyphs" fill="#121212" font-weight="700">Allow</text><text x="373.2" y="325.2" textLength="33.6" lengthAdjust="spacingAndGlyphs" fill="#121212" font-weight="700">once</text><text x="448.8" y="325.2" textLength="33.6" lengthAdjust="spacingAndGlyphs" fill="#ffffff">Deny</text><text x="54" y="342.2" textLength="100.8" lengthAdjust="spacingAndGlyphs" fill="#d0d0d0">package.json</text><text x="54" y="359.2" textLength="75.6" lengthAdjust="spacingAndGlyphs" fill="#d0d0d0">README.md</text></svg>
