<svg xmlns="http://www.w3.org/2000/svg" viewBox="0 0 897.6 500" width="897.6" height="500" font-family="ui-monospace,SFMono-Regular,Menlo,Consolas,'DejaVu Sans Mono','Liberation Mono',monospace" font-size="14" role="img" aria-label="Tade"><rect width="897.6" height="500" rx="8" fill="#111111"/><rect x="6" y="0" width="885.6" height="494" rx="5" fill="#1c1c1c"/><rect x="12" y="6" width="873.6" height="17" fill="#262626"/><rect x="12" y="23" width="16.8" height="17" fill="#262626"/><rect x="28.8" y="23" width="184.8" height="17" fill="#303030"/><rect x="213.6" y="23" width="672" height="17" fill="#262626"/><rect x="12" y="40" width="873.6" height="17" fill="#262626"/><rect x="12" y="57" width="243.6" height="17" fill="#262626"/><rect x="255.6" y="57" width="176.4" height="17" fill="#ffd787"/><rect x="432" y="57" width="453.6" height="17" fill="#262626"/><rect x="12" y="74" width="873.6" height="17" fill="#262626"/><rect x="12" y="91" width="873.6" height="17" fill="#262626"/><rect x="12" y="108" width="873.6" height="17" fill="#262626"/><rect x="12" y="125" width="873.6" height="17" fill="#262626"/><rect x="12" y="142" width="873.6" height="17" fill="#262626"/><rect x="12" y="159" width="873.6" height="17" fill="#262626"/><rect x="12" y="176" width="176.4" height="17" fill="#262626"/><rect x="188.4" y="176" width="25.2" height="17" fill="#444444"/><rect x="213.6" y="176" width="42" height="17" fill="#262626"/><rect x="255.6" y="176" width="134.4" height="17" fill="#5f875f"/><rect x="390" y="176" width="8.4" height="17" fill="#262626"/><rect x="398.4" y="176" width="134.4" height="17" fill="#5f875f"/><rect x="532.8" y="176" width="352.8" height="17" fill="#262626"/><rect x="12" y="193" width="873.6" height="17" fill="#262626"/><rect x="12" y="210" width="873.6" height="17" fill="#262626"/><rect x="12" y="227" width="873.6" height="17" fill="#262626"/><rect x="12" y="244" width="873.6" height="17" fill="#262626"/><rect x="12" y="261" width="873.6" height="17" fill="#262626"/><rect x="12" y="278" width="873.6" height="17" fill="#262626"/><rect x="12" y="295" width="8.4" height="17" fill="#262626"/><rect x="20.4" y="295" width="8.4" height="17" fill="#875f00"/><rect x="28.8" y="295" width="193.2" height="17" fill="#3a3a3a"/><rect x="222" y="295" width="663.6" height="17" fill="#262626"/><rect x="12" y="312" width="873.6" height="17" fill="#262626"/><rect x="12" y="329" width="873.6" height="17" fill="#262626"/><rect x="12" y="346" width="873.6" height="17" fill="#262626"/><rect x="12" y="363" width="873.6" height="17" fill="#262626"/><rect x="12" y="380" width="873.6" height="17" fill="#262626"/><rect x="12" y="397" width="873.6" height="17" fill="#262626"/><rect x="12" y="414" width="873.6" height="17" fill="#262626"/><rect x="12" y="431" width="873.6" height="17" fill="#262626"/><rect x="12" y="448" width="613.2" height="17" fill="#262626"/><rect x="625.2" y="448" width="168" height="17" fill="#444444"/><rect x="793.2" y="448" width="8.4" height="17" fill="#262626"/><rect x="801.6" y="448" width="67.2" height="17" fill="#ffaf00"/><rect x="868.8" y="448" width="16.8" height="17" fill="#262626"/><rect x="12" y="465" width="873.6" height="17" fill="#262626"/><rect x="20.4" y="295" width="4.2" height="17" fill="#875f00"/><path d="M16.5 23Q16.5 14.5 20.4 14.5" fill="none" stroke="#8a8a8a" stroke-width="1.1"/><line x1="20.4" y1="14.5" x2="28.8" y2="14.5" stroke="#8a8a8a" stroke-width="1.1"/><line x1="112.8" y1="14.5" x2="642" y2="14.5" stroke="#8a8a8a" stroke-width="1.1"/><line x1="868.8" y1="14.5" x2="877.2" y2="14.5" stroke="#8a8a8a" stroke-width="1.1"/><path d="M881.5 23Q881.5 14.5 877.2 14.5" fill="none" stroke="#8a8a8a" stroke-width="1.1"/><line x1="16.5" y1="23" x2="16.5" y2="465" stroke="#8a8a8a" stroke-width="1.1"/><line x1="226.5" y1="23" x2="226.5" y2="465" stroke="#585858" stroke-width="1.1"/><line x1="881.5" y1="23" x2="881.5" y2="465" stroke="#8a8a8a" stroke-width="1.1"/><path d="M16.5 465Q16.5 473.5 20.4 473.5" fill="none" stroke="#8a8a8a" stroke-width="1.1"/><line x1="20.4" y1="473.5" x2="877.2" y2="473.5" stroke="#8a8a8a" stroke-width="1.1"/><path d="M881.5 465Q881.5 473.5 877.2 473.5" fill="none" stroke="#8a8a8a" stroke-width="1.1"/><text x="37.2" y="19.2" textLength="67.2" lengthAdjust="spacingAndGlyphs" fill="#eeeeee" font-weight="700">Settings</text><text x="650.4" y="19.2" textLength="159.6" lengthAdjust="spacingAndGlyphs" fill="#808080">~/.tade/config.yaml</text><text x="818.4" y="19.2" textLength="8.4" lengthAdjust="spacingAndGlyphs" fill="#808080">·</text><text x="835.2" y="19.2" textLength="25.2" lengthAdjust="spacingAndGlyphs" fill="#808080">esc</text><text x="37.2" y="36.2" textLength="50.4" lengthAdjust="spacingAndGlyphs" fill="#808080">search</text><text x="96" y="36.2" textLength="67.2" lengthAdjust="spacingAndGlyphs" fill="#808080">settings</text><text x="238.8" y="36.2" textLength="58.8" lengthAdjust="spacingAndGlyphs" fill="#ffaf00" font-weight="700">Updates</text><text x="37.2" y="70.2" textLength="50.4" lengthAdjust="spacingAndGlyphs" fill="#d0d0d0">Agents</text><text x="272.4" y="70.2" textLength="42" lengthAdjust="spacingAndGlyphs" fill="#121212" font-weight="700">Check</text><text x="322.8" y="70.2" textLength="25.2" lengthAdjust="spacingAndGlyphs" fill="#121212" font-weight="700">for</text><text x="356.4" y="70.2" textLength="58.8" lengthAdjust="spacingAndGlyphs" fill="#121212" font-weight="700">updates</text><text x="37.2" y="87.2" textLength="50.4" lengthAdjust="spacingAndGlyphs" fill="#d0d0d0">Models</text><text x="255.6" y="87.2" textLength="58.8" lengthAdjust="spacingAndGlyphs" fill="#808080">checked</text><text x="322.8" y="87.2" textLength="33.6" lengthAdjust="spacingAndGlyphs" fill="#808080">just</text><text x="364.8" y="87.2" textLength="25.2" lengthAdjust="spacingAndGlyphs" fill="#808080">now</text><text x="37.2" y="104.2" textLength="100.8" lengthAdjust="spacingAndGlyphs" fill="#d0d0d0">Orchestrator</text><text x="37.2" y="121.2" textLength="75.6" lengthAdjust="spacingAndGlyphs" fill="#d0d0d0">Approvals</text><text x="163.2" y="121.2" textLength="50.4" lengthAdjust="spacingAndGlyphs" fill="#808080">bypass</text><text x="238.8" y="121.2" textLength="33.6" lengthAdjust="spacingAndGlyphs" fill="#ffaf00" font-weight="700">Tade</text><text x="37.2" y="138.2" textLength="50.4" lengthAdjust="spacingAndGlyphs" fill="#d0d0d0">Checks</text><text x="255.6" y="138.2" textLength="42" lengthAdjust="spacingAndGlyphs" fill="#d0d0d0">0.1.0</text><text x="306" y="138.2" textLength="8.4" lengthAdjust="spacingAndGlyphs" fill="#d0d0d0">·</text><text x="322.8" y="138.2" textLength="33.6" lengthAdjust="spacingAndGlyphs" fill="#d0d0d0">main</text><text x="364.8" y="138.2" textLength="8.4" lengthAdjust="spacingAndGlyphs" fill="#d0d0d0">·</text><text x="381.6" y="138.2" textLength="58.8" lengthAdjust="spacingAndGlyphs" fill="#d0d0d0">f8d73e1</text><text x="448.8" y="138.2" textLength="8.4" lengthAdjust="spacingAndGlyphs" fill="#d0d0d0">·</text><text x="465.6" y="138.2" textLength="8.4" lengthAdjust="spacingAndGlyphs" fill="#d0d0d0">a</text><text x="482.4" y="138.2" textLength="25.2" lengthAdjust="spacingAndGlyphs" fill="#d0d0d0">git</text><text x="516" y="138.2" textLength="67.2" lengthAdjust="spacingAndGlyphs" fill="#d0d0d0">checkout</text><text x="591.6" y="138.2" textLength="16.8" lengthAdjust="spacingAndGlyphs" fill="#d0d0d0">at</text><text x="616.8" y="138.2" textLength="84" lengthAdjust="spacingAndGlyphs" fill="#d0d0d0">~/src/tade</text><text x="37.2" y="155.2" textLength="42" lengthAdjust="spacingAndGlyphs" fill="#d0d0d0">Voice</text><text x="255.6" y="155.2" textLength="8.4" lengthAdjust="spacingAndGlyphs" fill="#d787d7">●</text><text x="272.4" y="155.2" textLength="92.4" lengthAdjust="spacingAndGlyphs" fill="#d787d7">origin/main</text><text x="373.2" y="155.2" textLength="16.8" lengthAdjust="spacingAndGlyphs" fill="#d787d7">is</text><text x="398.4" y="155.2" textLength="16.8" lengthAdjust="spacingAndGlyphs" fill="#d787d7">at</text><text x="423.6" y="155.2" textLength="58.8" lengthAdjust="spacingAndGlyphs" fill="#d787d7">1a2b3c4</text><text x="490.8" y="155.2" textLength="25.2" lengthAdjust="spacingAndGlyphs" fill="#d787d7">and</text><text x="524.4" y="155.2" textLength="33.6" lengthAdjust="spacingAndGlyphs" fill="#d787d7">this</text><text x="566.4" y="155.2" textLength="67.2" lengthAdjust="spacingAndGlyphs" fill="#d787d7">checkout</text><text x="642" y="155.2" textLength="16.8" lengthAdjust="spacingAndGlyphs" fill="#d787d7">is</text><text x="667.2" y="155.2" textLength="16.8" lengthAdjust="spacingAndGlyphs" fill="#d787d7">on</text><text x="692.4" y="155.2" textLength="58.8" lengthAdjust="spacingAndGlyphs" fill="#d787d7">f8d73e1</text><text x="37.2" y="172.2" textLength="50.4" lengthAdjust="spacingAndGlyphs" fill="#d0d0d0">Window</text><text x="255.6" y="172.2" textLength="25.2" lengthAdjust="spacingAndGlyphs" fill="#ffaf00">git</text><text x="289.2" y="172.2" textLength="16.8" lengthAdjust="spacingAndGlyphs" fill="#ffaf00">-C</text><text x="314.4" y="172.2" textLength="84" lengthAdjust="spacingAndGlyphs" fill="#ffaf00">~/src/tade</text><text x="406.8" y="172.2" textLength="33.6" lengthAdjust="spacingAndGlyphs" fill="#ffaf00">pull</text><text x="448.8" y="172.2" textLength="75.6" lengthAdjust="spacingAndGlyphs" fill="#ffaf00">--ff-only</text><text x="532.8" y="172.2" textLength="16.8" lengthAdjust="spacingAndGlyphs" fill="#ffaf00">&amp;&amp;</text><text x="558" y="172.2" textLength="33.6" lengthAdjust="spacingAndGlyphs" fill="#ffaf00">pnpm</text><text x="600" y="172.2" textLength="58.8" lengthAdjust="spacingAndGlyphs" fill="#ffaf00">install</text><text x="37.2" y="189.2" textLength="67.2" lengthAdjust="spacingAndGlyphs" fill="#d0d0d0">Projects</text><text x="196.8" y="189.2" textLength="8.4" lengthAdjust="spacingAndGlyphs" fill="#bcbcbc">3</text><text x="272.4" y="189.2" textLength="50.4" lengthAdjust="spacingAndGlyphs" fill="#121212" font-weight="700">Update</text><text x="331.2" y="189.2" textLength="42" lengthAdjust="spacingAndGlyphs" fill="#121212" font-weight="700">Tade…</text><text x="415.2" y="189.2" textLength="50.4" lengthAdjust="spacingAndGlyphs" fill="#121212" font-weight="700">Reload</text><text x="474" y="189.2" textLength="42" lengthAdjust="spacingAndGlyphs" fill="#121212" font-weight="700">Tade…</text><text x="37.2" y="206.2" textLength="50.4" lengthAdjust="spacingAndGlyphs" fill="#d0d0d0">Checks</text><text x="96" y="206.2" textLength="25.2" lengthAdjust="spacingAndGlyphs" fill="#d0d0d0">per</text><text x="129.6" y="206.2" textLength="58.8" lengthAdjust="spacingAndGlyphs" fill="#d0d0d0">project</text><text x="37.2" y="223.2" textLength="58.8" lengthAdjust="spacingAndGlyphs" fill="#d0d0d0">Budgets</text><text x="188.4" y="223.2" textLength="8.4" lengthAdjust="spacingAndGlyphs" fill="#d787d7">●</text><text x="205.2" y="223.2" textLength="8.4" lengthAdjust="spacingAndGlyphs" fill="#d787d7">1</text><text x="238.8" y="223.2" textLength="67.2" lengthAdjust="spacingAndGlyphs" fill="#ffaf00" font-weight="700">Programs</text><text x="314.4" y="223.2" textLength="16.8" lengthAdjust="spacingAndGlyphs" fill="#ffaf00" font-weight="700">it</text><text x="339.6" y="223.2" textLength="33.6" lengthAdjust="spacingAndGlyphs" fill="#ffaf00" font-weight="700">runs</text><text x="37.2" y="240.2" textLength="58.8" lengthAdjust="spacingAndGlyphs" fill="#d0d0d0">Journal</text><text x="255.6" y="240.2" textLength="25.2" lengthAdjust="spacingAndGlyphs" fill="#d0d0d0">git</text><text x="390" y="240.2" textLength="50.4" lengthAdjust="spacingAndGlyphs" fill="#d0d0d0">2.39.5</text><text x="490.8" y="240.2" textLength="8.4" lengthAdjust="spacingAndGlyphs" fill="#808080">·</text><text x="507.6" y="240.2" textLength="50.4" lengthAdjust="spacingAndGlyphs" fill="#808080">cannot</text><text x="566.4" y="240.2" textLength="33.6" lengthAdjust="spacingAndGlyphs" fill="#808080">tell</text><text x="37.2" y="257.2" textLength="75.6" lengthAdjust="spacingAndGlyphs" fill="#d0d0d0">Telemetry</text><text x="390" y="257.2" textLength="25.2" lengthAdjust="spacingAndGlyphs" fill="#808080">the</text><text x="423.6" y="257.2" textLength="67.2" lengthAdjust="spacingAndGlyphs" fill="#808080">system’s</text><text x="499.2" y="257.2" textLength="25.2" lengthAdjust="spacingAndGlyphs" fill="#808080">own</text><text x="532.8" y="257.2" textLength="8.4" lengthAdjust="spacingAndGlyphs" fill="#808080">·</text><text x="549.6" y="257.2" textLength="100.8" lengthAdjust="spacingAndGlyphs" fill="#808080">/usr/bin/git</text><text x="37.2" y="274.2" textLength="75.6" lengthAdjust="spacingAndGlyphs" fill="#d0d0d0">Shortcuts</text><text x="390" y="274.2" textLength="16.8" lengthAdjust="spacingAndGlyphs" fill="#808080">no</text><text x="415.2" y="274.2" textLength="58.8" lengthAdjust="spacingAndGlyphs" fill="#808080">command</text><text x="482.4" y="274.2" textLength="8.4" lengthAdjust="spacingAndGlyphs" fill="#808080">·</text><text x="499.2" y="274.2" textLength="25.2" lengthAdjust="spacingAndGlyphs" fill="#808080">the</text><text x="532.8" y="274.2" textLength="50.4" lengthAdjust="spacingAndGlyphs" fill="#808080">system</text><text x="591.6" y="274.2" textLength="58.8" lengthAdjust="spacingAndGlyphs" fill="#808080">updates</text><text x="658.8" y="274.2" textLength="16.8" lengthAdjust="spacingAndGlyphs" fill="#808080">it</text><text x="684" y="274.2" textLength="8.4" lengthAdjust="spacingAndGlyphs" fill="#808080">—</text><text x="700.8" y="274.2" textLength="50.4" lengthAdjust="spacingAndGlyphs" fill="#808080">macOS:</text><text x="759.6" y="274.2" textLength="109.2" lengthAdjust="spacingAndGlyphs" fill="#808080">`xcode-select</text><text x="37.2" y="291.2" textLength="67.2" lengthAdjust="spacingAndGlyphs" fill="#d0d0d0">Accounts</text><text x="188.4" y="291.2" textLength="8.4" lengthAdjust="spacingAndGlyphs" fill="#87d787">●</text><text x="205.2" y="291.2" textLength="8.4" lengthAdjust="spacingAndGlyphs" fill="#87d787">2</text><text x="390" y="291.2" textLength="84" lengthAdjust="spacingAndGlyphs" fill="#808080">--install`</text><text x="37.2" y="308.2" textLength="58.8" lengthAdjust="spacingAndGlyphs" fill="#eeeeee" font-weight="700">Updates</text><text x="188.4" y="308.2" textLength="8.4" lengthAdjust="spacingAndGlyphs" fill="#d787d7">●</text><text x="205.2" y="308.2" textLength="8.4" lengthAdjust="spacingAndGlyphs" fill="#d787d7">2</text><text x="255.6" y="325.2" textLength="33.6" lengthAdjust="spacingAndGlyphs" fill="#d0d0d0">tmux</text><text x="390" y="325.2" textLength="8.4" lengthAdjust="spacingAndGlyphs" fill="#808080">—</text><text x="490.8" y="325.2" textLength="8.4" lengthAdjust="spacingAndGlyphs" fill="#d787d7">▲</text><text x="507.6" y="325.2" textLength="25.2" lengthAdjust="spacingAndGlyphs" fill="#d787d7">not</text><text x="541.2" y="325.2" textLength="75.6" lengthAdjust="spacingAndGlyphs" fill="#d787d7">installed</text><text x="390" y="342.2" textLength="58.8" lengthAdjust="spacingAndGlyphs" fill="#808080">nothing</text><text x="457.2" y="342.2" textLength="33.6" lengthAdjust="spacingAndGlyphs" fill="#808080">here</text><text x="499.2" y="342.2" textLength="42" lengthAdjust="spacingAndGlyphs" fill="#808080">needs</text><text x="549.6" y="342.2" textLength="16.8" lengthAdjust="spacingAndGlyphs" fill="#808080">it</text><text x="390" y="359.2" textLength="16.8" lengthAdjust="spacingAndGlyphs" fill="#808080">no</text><text x="415.2" y="359.2" textLength="58.8" lengthAdjust="spacingAndGlyphs" fill="#808080">command</text><text x="482.4" y="359.2" textLength="8.4" lengthAdjust="spacingAndGlyphs" fill="#808080">·</text><text x="499.2" y="359.2" textLength="58.8" lengthAdjust="spacingAndGlyphs" fill="#808080">nothing</text><text x="566.4" y="359.2" textLength="16.8" lengthAdjust="spacingAndGlyphs" fill="#808080">on</text><text x="591.6" y="359.2" textLength="33.6" lengthAdjust="spacingAndGlyphs" fill="#808080">your</text><text x="633.6" y="359.2" textLength="33.6" lengthAdjust="spacingAndGlyphs" fill="#808080">PATH</text><text x="675.6" y="359.2" textLength="58.8" lengthAdjust="spacingAndGlyphs" fill="#808080">answers</text><text x="742.8" y="359.2" textLength="16.8" lengthAdjust="spacingAndGlyphs" fill="#808080">to</text><text x="768" y="359.2" textLength="50.4" lengthAdjust="spacingAndGlyphs" fill="#808080">`tmux`</text><text x="255.6" y="393.2" textLength="16.8" lengthAdjust="spacingAndGlyphs" fill="#d0d0d0">pi</text><text x="390" y="393.2" textLength="50.4" lengthAdjust="spacingAndGlyphs" fill="#d0d0d0">0.85.1</text><text x="490.8" y="393.2" textLength="8.4" lengthAdjust="spacingAndGlyphs" fill="#808080">·</text><text x="507.6" y="393.2" textLength="50.4" lengthAdjust="spacingAndGlyphs" fill="#808080">cannot</text><text x="566.4" y="393.2" textLength="33.6" lengthAdjust="spacingAndGlyphs" fill="#808080">tell</text><text x="390" y="410.2" textLength="58.8" lengthAdjust="spacingAndGlyphs" fill="#808080">shipped</text><text x="457.2" y="410.2" textLength="33.6" lengthAdjust="spacingAndGlyphs" fill="#808080">with</text><text x="499.2" y="410.2" textLength="33.6" lengthAdjust="spacingAndGlyphs" fill="#808080">Tade</text><text x="541.2" y="410.2" textLength="8.4" lengthAdjust="spacingAndGlyphs" fill="#808080">·</text><text x="558" y="410.2" textLength="302.4" lengthAdjust="spacingAndGlyphs" fill="#808080">~/src/tade/node_modules/@earendil-wo</text><text x="860.4" y="410.2" textLength="8.4" lengthAdjust="spacingAndGlyphs" fill="#d0d0d0">…</text><text x="390" y="427.2" textLength="16.8" lengthAdjust="spacingAndGlyphs" fill="#808080">no</text><text x="415.2" y="427.2" textLength="58.8" lengthAdjust="spacingAndGlyphs" fill="#808080">command</text><text x="482.4" y="427.2" textLength="8.4" lengthAdjust="spacingAndGlyphs" fill="#808080">·</text><text x="499.2" y="427.2" textLength="16.8" lengthAdjust="spacingAndGlyphs" fill="#808080">it</text><text x="524.4" y="427.2" textLength="42" lengthAdjust="spacingAndGlyphs" fill="#808080">comes</text><text x="574.8" y="427.2" textLength="33.6" lengthAdjust="spacingAndGlyphs" fill="#808080">with</text><text x="616.8" y="427.2" textLength="42" lengthAdjust="spacingAndGlyphs" fill="#808080">Tade,</text><text x="667.2" y="427.2" textLength="16.8" lengthAdjust="spacingAndGlyphs" fill="#808080">so</text><text x="692.4" y="427.2" textLength="67.2" lengthAdjust="spacingAndGlyphs" fill="#808080">updating</text><text x="768" y="427.2" textLength="33.6" lengthAdjust="spacingAndGlyphs" fill="#808080">Tade</text><text x="810" y="427.2" textLength="16.8" lengthAdjust="spacingAndGlyphs" fill="#808080">is</text><text x="835.2" y="427.2" textLength="33.6" lengthAdjust="spacingAndGlyphs" fill="#808080">what</text><text x="238.8" y="444.2" textLength="8.4" lengthAdjust="spacingAndGlyphs" fill="#87d787">●</text><text x="255.6" y="444.2" textLength="42" lengthAdjust="spacingAndGlyphs" fill="#808080">Saved</text><text x="306" y="444.2" textLength="16.8" lengthAdjust="spacingAndGlyphs" fill="#808080">as</text><text x="331.2" y="444.2" textLength="25.2" lengthAdjust="spacingAndGlyphs" fill="#808080">you</text><text x="364.8" y="444.2" textLength="50.4" lengthAdjust="spacingAndGlyphs" fill="#808080">change</text><text x="423.6" y="444.2" textLength="25.2" lengthAdjust="spacingAndGlyphs" fill="#808080">it.</text><text x="642" y="461.2" textLength="33.6" lengthAdjust="spacingAndGlyphs" fill="#ffffff">Open</text><text x="684" y="461.2" textLength="92.4" lengthAdjust="spacingAndGlyphs" fill="#ffffff">config.yaml</text><text x="818.4" y="461.2" textLength="33.6" lengthAdjust="spacingAndGlyphs" fill="#121212" font-weight="700">Done</text></svg>
