<svg xmlns="http://www.w3.org/2000/svg" viewBox="0 0 948 517" width="948" height="517" font-family="ui-monospace,SFMono-Regular,Menlo,Consolas,'DejaVu Sans Mono','Liberation Mono',monospace" font-size="14" role="img" aria-label="Tade"><rect width="948" height="517" rx="8" fill="#111111"/><rect x="6" y="0" width="936" height="511" rx="5" fill="#1c1c1c"/><rect x="12" y="6" width="924" height="17" fill="rgb(38,38,38)"/><rect x="12" y="23" width="924" height="17" fill="rgb(38,38,38)"/><rect x="12" y="40" width="924" height="17" fill="rgb(38,38,38)"/><rect x="12" y="57" width="924" height="17" fill="rgb(38,38,38)"/><rect x="12" y="74" width="924" height="17" fill="rgb(38,38,38)"/><rect x="12" y="91" width="924" height="17" fill="rgb(38,38,38)"/><rect x="12" y="108" width="924" height="17" fill="rgb(38,38,38)"/><rect x="12" y="125" width="924" height="17" fill="rgb(38,38,38)"/><rect x="12" y="142" width="924" height="17" fill="rgb(38,38,38)"/><rect x="12" y="159" width="924" height="17" fill="rgb(38,38,38)"/><rect x="12" y="176" width="924" height="17" fill="rgb(38,38,38)"/><rect x="12" y="193" width="924" height="17" fill="rgb(38,38,38)"/><rect x="12" y="210" width="924" height="17" fill="rgb(38,38,38)"/><rect x="12" y="227" width="924" height="17" fill="rgb(38,38,38)"/><rect x="12" y="244" width="924" height="17" fill="rgb(38,38,38)"/><rect x="12" y="261" width="924" height="17" fill="rgb(38,38,38)"/><rect x="12" y="278" width="924" height="17" fill="rgb(38,38,38)"/><rect x="12" y="295" width="924" height="17" fill="rgb(38,38,38)"/><rect x="12" y="312" width="924" height="17" fill="rgb(38,38,38)"/><rect x="12" y="329" width="924" height="17" fill="rgb(38,38,38)"/><rect x="12" y="346" width="924" height="17" fill="rgb(38,38,38)"/><rect x="12" y="363" width="924" height="17" fill="rgb(38,38,38)"/><rect x="12" y="380" width="924" height="17" fill="rgb(38,38,38)"/><rect x="12" y="397" width="924" height="17" fill="rgb(38,38,38)"/><rect x="12" y="414" width="924" height="17" fill="rgb(38,38,38)"/><rect x="12" y="431" width="924" height="17" fill="rgb(38,38,38)"/><rect x="12" y="448" width="924" height="17" fill="rgb(38,38,38)"/><rect x="12" y="465" width="831.6" height="17" fill="rgb(38,38,38)"/><rect x="843.6" y="465" width="75.6" height="17" fill="rgb(68,68,68)"/><rect x="919.2" y="465" width="16.8" height="17" fill="rgb(38,38,38)"/><rect x="12" y="482" width="924" height="17" fill="rgb(38,38,38)"/><rect x="163.2" y="125" width="67.2" height="17" fill="#dadada"/><rect x="230.4" y="125" width="16.8" height="17" fill="#dadada" opacity="0.25"/><rect x="314.4" y="125" width="42" height="17" fill="#dadada"/><rect x="356.4" y="125" width="42" height="17" fill="#dadada" opacity="0.25"/><rect x="154.8" y="142" width="16.8" height="17" fill="#dadada"/><rect x="171.6" y="142" width="67.2" height="17" fill="#dadada" opacity="0.25"/><rect x="306" y="142" width="42" height="17" fill="#dadada"/><rect x="348" y="142" width="42" height="17" fill="#dadada" opacity="0.25"/><rect x="230.4" y="261" width="67.2" height="17" fill="#dadada"/><rect x="297.6" y="261" width="16.8" height="85" fill="#dadada" opacity="0.25"/><rect x="381.6" y="261" width="42" height="17" fill="#dadada"/><rect x="423.6" y="261" width="42" height="85" fill="#dadada" opacity="0.25"/><rect x="230.4" y="278" width="8.4" height="17" fill="#dadada"/><rect x="238.8" y="278" width="58.8" height="68" fill="#dadada" opacity="0.25"/><rect x="381.6" y="278" width="33.6" height="17" fill="#dadada"/><rect x="415.2" y="278" width="8.4" height="68" fill="#dadada" opacity="0.25"/><rect x="230.4" y="295" width="8.4" height="51" fill="#dadada" opacity="0.25"/><rect x="381.6" y="295" width="8.4" height="17" fill="#dadada"/><rect x="390" y="295" width="25.2" height="51" fill="#dadada" opacity="0.25"/><rect x="381.6" y="312" width="8.4" height="34" fill="#dadada" opacity="0.25"/><rect x="196.8" y="448" width="67.2" height="17" fill="#dadada"/><rect x="264" y="448" width="16.8" height="17" fill="#dadada" opacity="0.25"/><rect x="348" y="448" width="42" height="17" fill="#dadada"/><rect x="390" y="448" width="42" height="17" fill="#dadada" opacity="0.25"/><path d="M16.2 23Q16.2 14.5 20.4 14.5" fill="none" stroke="rgb(138,138,138)" stroke-width="1.1"/><line x1="20.4" y1="14.5" x2="28.8" y2="14.5" stroke="rgb(138,138,138)" stroke-width="1.1"/><line x1="121.2" y1="14.5" x2="877.2" y2="14.5" stroke="rgb(138,138,138)" stroke-width="1.1"/><line x1="919.2" y1="14.5" x2="927.6" y2="14.5" stroke="rgb(138,138,138)" stroke-width="1.1"/><path d="M931.8 23Q931.8 14.5 927.6 14.5" fill="none" stroke="rgb(138,138,138)" stroke-width="1.1"/><line x1="16.2" y1="23" x2="16.2" y2="482" stroke="rgb(138,138,138)" stroke-width="1.1"/><line x1="931.8" y1="23" x2="931.8" y2="482" stroke="rgb(138,138,138)" stroke-width="1.1"/><path d="M16.2 482Q16.2 490.5 20.4 490.5" fill="none" stroke="rgb(138,138,138)" stroke-width="1.1"/><line x1="20.4" y1="490.5" x2="927.6" y2="490.5" stroke="rgb(138,138,138)" stroke-width="1.1"/><path d="M931.8 482Q931.8 490.5 927.6 490.5" fill="none" stroke="rgb(138,138,138)" stroke-width="1.1"/><text x="37.2" y="19.2" textLength="75.6" lengthAdjust="spacingAndGlyphs" fill="rgb(238,238,238)" font-weight="700">Resources</text><text x="885.6" y="19.2" textLength="25.2" lengthAdjust="spacingAndGlyphs" fill="rgb(128,128,128)">esc</text><text x="28.8" y="36.2" textLength="33.6" lengthAdjust="spacingAndGlyphs" font-weight="700">Tade</text><text x="70.8" y="36.2" textLength="16.8" lengthAdjust="spacingAndGlyphs" font-weight="700">is</text><text x="96" y="36.2" textLength="42" lengthAdjust="spacingAndGlyphs" font-weight="700">using</text><text x="146.4" y="36.2" textLength="25.2" lengthAdjust="spacingAndGlyphs" font-weight="700">91%</text><text x="180" y="36.2" textLength="25.2" lengthAdjust="spacingAndGlyphs" font-weight="700">CPU</text><text x="213.6" y="36.2" textLength="25.2" lengthAdjust="spacingAndGlyphs" font-weight="700">and</text><text x="247.2" y="36.2" textLength="25.2" lengthAdjust="spacingAndGlyphs" font-weight="700">783</text><text x="280.8" y="36.2" textLength="16.8" lengthAdjust="spacingAndGlyphs" font-weight="700">MB</text><text x="306" y="36.2" textLength="16.8" lengthAdjust="spacingAndGlyphs" font-weight="700">of</text><text x="331.2" y="36.2" textLength="50.4" lengthAdjust="spacingAndGlyphs" font-weight="700">memory</text><text x="381.6" y="36.2" textLength="8.4" lengthAdjust="spacingAndGlyphs">,</text><text x="398.4" y="36.2" textLength="50.4" lengthAdjust="spacingAndGlyphs">across</text><text x="457.2" y="36.2" textLength="8.4" lengthAdjust="spacingAndGlyphs">7</text><text x="474" y="36.2" textLength="84" lengthAdjust="spacingAndGlyphs">processes.</text><text x="28.8" y="70.2" textLength="25.2" lengthAdjust="spacingAndGlyphs" fill="rgb(95,215,215)" font-weight="700">###</text><text x="62.4" y="70.2" textLength="16.8" lengthAdjust="spacingAndGlyphs" fill="rgb(95,215,215)" font-weight="700">By</text><text x="87.6" y="70.2" textLength="58.8" lengthAdjust="spacingAndGlyphs" fill="rgb(95,215,215)" font-weight="700">project</text><text x="28.8" y="104.2" textLength="25.2" lengthAdjust="spacingAndGlyphs" fill="rgb(88,88,88)">```</text><text x="163.2" y="121.2" textLength="25.2" lengthAdjust="spacingAndGlyphs">CPU</text><text x="314.4" y="121.2" textLength="50.4" lengthAdjust="spacingAndGlyphs">memory</text><text x="45.6" y="138.2" textLength="67.2" lengthAdjust="spacingAndGlyphs">checkout</text><text x="272.4" y="138.2" textLength="25.2" lengthAdjust="spacingAndGlyphs">76%</text><text x="415.2" y="138.2" textLength="25.2" lengthAdjust="spacingAndGlyphs">369</text><text x="448.8" y="138.2" textLength="16.8" lengthAdjust="spacingAndGlyphs">MB</text><text x="45.6" y="155.2" textLength="33.6" lengthAdjust="spacingAndGlyphs">Tade</text><text x="87.6" y="155.2" textLength="50.4" lengthAdjust="spacingAndGlyphs">itself</text><text x="264" y="155.2" textLength="25.2" lengthAdjust="spacingAndGlyphs">15%</text><text x="406.8" y="155.2" textLength="25.2" lengthAdjust="spacingAndGlyphs">414</text><text x="440.4" y="155.2" textLength="16.8" lengthAdjust="spacingAndGlyphs">MB</text><text x="28.8" y="172.2" textLength="25.2" lengthAdjust="spacingAndGlyphs" fill="rgb(88,88,88)">```</text><text x="28.8" y="206.2" textLength="25.2" lengthAdjust="spacingAndGlyphs" fill="rgb(95,215,215)" font-weight="700">###</text><text x="62.4" y="206.2" textLength="16.8" lengthAdjust="spacingAndGlyphs" fill="rgb(95,215,215)" font-weight="700">By</text><text x="87.6" y="206.2" textLength="33.6" lengthAdjust="spacingAndGlyphs" fill="rgb(95,215,215)" font-weight="700">kind</text><text x="28.8" y="240.2" textLength="25.2" lengthAdjust="spacingAndGlyphs" fill="rgb(88,88,88)">```</text><text x="230.4" y="257.2" textLength="25.2" lengthAdjust="spacingAndGlyphs">CPU</text><text x="381.6" y="257.2" textLength="50.4" lengthAdjust="spacingAndGlyphs">memory</text><text x="45.6" y="274.2" textLength="50.4" lengthAdjust="spacingAndGlyphs">agents</text><text x="339.6" y="274.2" textLength="25.2" lengthAdjust="spacingAndGlyphs">76%</text><text x="482.4" y="274.2" textLength="25.2" lengthAdjust="spacingAndGlyphs">361</text><text x="516" y="274.2" textLength="16.8" lengthAdjust="spacingAndGlyphs">MB</text><text x="45.6" y="291.2" textLength="25.2" lengthAdjust="spacingAndGlyphs">the</text><text x="79.2" y="291.2" textLength="100.8" lengthAdjust="spacingAndGlyphs">orchestrator</text><text x="339.6" y="291.2" textLength="25.2" lengthAdjust="spacingAndGlyphs">12%</text><text x="482.4" y="291.2" textLength="25.2" lengthAdjust="spacingAndGlyphs">293</text><text x="516" y="291.2" textLength="16.8" lengthAdjust="spacingAndGlyphs">MB</text><text x="45.6" y="308.2" textLength="25.2" lengthAdjust="spacingAndGlyphs">the</text><text x="79.2" y="308.2" textLength="50.4" lengthAdjust="spacingAndGlyphs">window</text><text x="331.2" y="308.2" textLength="33.6" lengthAdjust="spacingAndGlyphs">2.5%</text><text x="482.4" y="308.2" textLength="25.2" lengthAdjust="spacingAndGlyphs">117</text><text x="516" y="308.2" textLength="16.8" lengthAdjust="spacingAndGlyphs">MB</text><text x="45.6" y="325.2" textLength="75.6" lengthAdjust="spacingAndGlyphs">terminals</text><text x="331.2" y="325.2" textLength="33.6" lengthAdjust="spacingAndGlyphs">0.5%</text><text x="499.2" y="325.2" textLength="8.4" lengthAdjust="spacingAndGlyphs">8</text><text x="516" y="325.2" textLength="16.8" lengthAdjust="spacingAndGlyphs">MB</text><text x="45.6" y="342.2" textLength="58.8" lengthAdjust="spacingAndGlyphs">helpers</text><text x="112.8" y="342.2" textLength="42" lengthAdjust="spacingAndGlyphs">(git,</text><text x="163.2" y="342.2" textLength="25.2" lengthAdjust="spacingAndGlyphs">ps,</text><text x="196.8" y="342.2" textLength="16.8" lengthAdjust="spacingAndGlyphs">…)</text><text x="331.2" y="342.2" textLength="33.6" lengthAdjust="spacingAndGlyphs">0.1%</text><text x="499.2" y="342.2" textLength="8.4" lengthAdjust="spacingAndGlyphs">4</text><text x="516" y="342.2" textLength="16.8" lengthAdjust="spacingAndGlyphs">MB</text><text x="28.8" y="359.2" textLength="25.2" lengthAdjust="spacingAndGlyphs" fill="rgb(88,88,88)">```</text><text x="28.8" y="393.2" textLength="25.2" lengthAdjust="spacingAndGlyphs" fill="rgb(95,215,215)" font-weight="700">###</text><text x="62.4" y="393.2" textLength="16.8" lengthAdjust="spacingAndGlyphs" fill="rgb(95,215,215)" font-weight="700">By</text><text x="87.6" y="393.2" textLength="42" lengthAdjust="spacingAndGlyphs" fill="rgb(95,215,215)" font-weight="700">agent</text><text x="138" y="393.2" textLength="25.2" lengthAdjust="spacingAndGlyphs" fill="rgb(95,215,215)" font-weight="700">and</text><text x="171.6" y="393.2" textLength="67.2" lengthAdjust="spacingAndGlyphs" fill="rgb(95,215,215)" font-weight="700">terminal</text><text x="28.8" y="427.2" textLength="25.2" lengthAdjust="spacingAndGlyphs" fill="rgb(88,88,88)">```</text><text x="196.8" y="444.2" textLength="25.2" lengthAdjust="spacingAndGlyphs">CPU</text><text x="348" y="444.2" textLength="50.4" lengthAdjust="spacingAndGlyphs">memory</text><text x="45.6" y="461.2" textLength="58.8" lengthAdjust="spacingAndGlyphs">refunds</text><text x="306" y="461.2" textLength="25.2" lengthAdjust="spacingAndGlyphs">76%</text><text x="448.8" y="461.2" textLength="25.2" lengthAdjust="spacingAndGlyphs">361</text><text x="482.4" y="461.2" textLength="16.8" lengthAdjust="spacingAndGlyphs">MB</text><text x="28.8" y="478.2" textLength="16.8" lengthAdjust="spacingAndGlyphs" fill="rgb(128,128,128)">↑↓</text><text x="54" y="478.2" textLength="58.8" lengthAdjust="spacingAndGlyphs" fill="rgb(128,128,128)">scrolls</text><text x="121.2" y="478.2" textLength="8.4" lengthAdjust="spacingAndGlyphs" fill="rgb(128,128,128)">·</text><text x="138" y="478.2" textLength="33.6" lengthAdjust="spacingAndGlyphs" fill="rgb(128,128,128)">1–26</text><text x="180" y="478.2" textLength="16.8" lengthAdjust="spacingAndGlyphs" fill="rgb(128,128,128)">of</text><text x="205.2" y="478.2" textLength="16.8" lengthAdjust="spacingAndGlyphs" fill="rgb(128,128,128)">53</text><text x="230.4" y="478.2" textLength="8.4" lengthAdjust="spacingAndGlyphs" fill="rgb(128,128,128)">·</text><text x="247.2" y="478.2" textLength="33.6" lengthAdjust="spacingAndGlyphs" fill="rgb(128,128,128)">kept</text><text x="289.2" y="478.2" textLength="58.8" lengthAdjust="spacingAndGlyphs" fill="rgb(128,128,128)">current</text><text x="356.4" y="478.2" textLength="42" lengthAdjust="spacingAndGlyphs" fill="rgb(128,128,128)">while</text><text x="406.8" y="478.2" textLength="33.6" lengthAdjust="spacingAndGlyphs" fill="rgb(128,128,128)">open</text><text x="860.4" y="478.2" textLength="42" lengthAdjust="spacingAndGlyphs" fill="rgb(238,238,238)">Close</text></svg>
